<svg xmlns="http://www.w3.org/2000/svg"><defs><g id="ameba"><rect fill="#46AE38" width="48" height="48"/><path fill="#FFFFFF" d="M35.1,29.1c0.7-0.1,1.4-0.2,2-0.5c0.8-0.3,1.7-0.6,2.3-1.3c0.6-0.8,0.9-1.7,1.1-2.7c0.1-0.5,0-1.1-0.2-1.6&#10;    c-0.3-0.8-0.9-1.5-1.6-1.9c-0.4-0.3-1-0.5-1.4-0.8c-0.9-0.7-1.3-1.8-1.3-2.9c0-0.8-0.3-1.7-0.9-2.3c-0.6-0.6-1.5-0.8-2.3-0.7&#10;    c-0.6,0.1-1.3-0.2-1.7-0.6c-0.8-0.7-1.2-1.6-1.3-2.6c-0.2-1-0.5-2.1-1.2-2.8c-0.6-0.7-1.5-1.1-2.4-1.2c-0.7-0.1-1.4-0.2-2.1-0.1&#10;    c-0.4,0.1-0.9,0.3-1.2,0.5c-0.9,0.7-1.4,1.7-1.7,2.8c-0.2,0.5-0.7,0.9-1.2,1.1c-0.8,0.3-1.7,0.4-2.5,0.5c-1,0.1-1.9,0.6-2.4,1.4&#10;    c-0.3,0.5-0.5,1-0.7,1.5c-0.4,0.7-1.2,1-1.9,1.2c-0.9,0.3-1.9,0.5-2.7,1c-1.1,0.6-1.9,1.7-2.1,2.9c-0.2,1.1-0.1,2.3,0.4,3.4&#10;    c0.5,1,1.3,1.9,2.3,2.3c0.6,0.2,1.4,0.3,1.9,0.8c0.5,0.5,0.4,1.4,0.1,2c-0.3,0.5-0.6,0.8-0.9,1.2c-0.5,0.7-0.9,1.5-0.9,2.4&#10;    c-0.3,2.2,1.6,4.4,3.9,4.4c0.9,0,1.8,0,2.6,0.5c0.7,0.4,0.9,1.2,1.5,1.8c0.5,0.6,1.2,0.9,1.9,1.1c1.2,0.2,2.4,0.1,3.5-0.5&#10;    c1.1-0.5,1.9-1.5,2.4-2.6c0.3-0.6,0.5-1.2,1-1.6c0.6-0.5,1.6-0.4,2.2,0.2c0.5,0.6,0.7,1.4,1,2.1c0.4,1.1,1.3,2.1,2.3,2.7&#10;    c1.3,0.7,2.9,0.9,4.3,0.4c1.1-0.4,1.9-1.2,2.3-2.3c0.3-0.8,0.6-1.7,0.4-2.6c-0.3-1.7-1.6-3.1-3.2-3.6C36,32,35.4,32,34.8,31.9&#10;    c-0.4-0.1-0.8-0.3-1.1-0.7c-0.3-0.4-0.2-1,0-1.4C34,29.4,34.6,29.2,35.1,29.1z M19.8,18.5c-0.2,0.6-1.1,0.8-1.5,0.3&#10;    c-0.5-0.5-0.2-1.3,0.4-1.5C19.4,17.1,20,17.8,19.8,18.5z M29,18.4c-0.1,0.6-0.9,0.9-1.4,0.5c-0.5-0.4-0.4-1.3,0.2-1.5&#10;    C28.5,17.1,29.2,17.7,29,18.4z"/></g><g id="bebo"><rect fill="#ED1213" width="48" height="48"/><path fill="#FFFFFF" d="M24,7C14.6,7,7,14.6,7,24c0,9.4,7.6,17,17,17c9.4,0,17-7.6,17-17C41,14.6,33.4,7,24,7z M28.6,34.9h-5.7&#10;    c-4.6-0.2-8.2-3-8.3-6.9V15.1c0-3.3,3.5-3.3,3.5,0v10.5c0.1,2.8,1.6,4.9,4.2,5.4h5.9c4.3-0.2,7.1-7.4,0-9.3h-5.1&#10;    c-3.1,0-3.4-3.7,0-3.7h5.3c4.5,0.2,7.3,3.3,7.8,6.4c0.2,1,0.3,3.1,0,4.3C35.4,31.1,33.5,34.4,28.6,34.9z"/></g><g id="blogger"><rect fill="#FF9800" width="48" height="48"/><path fill="#F1F1F1" d="M37.1,20.2h-1.2c-1,0-1.9-0.8-1.9-1.9c0-5.2-4.2-9.4-9.4-9.4h-6.2C13.2,9,9,13.2,9,18.4v11.2&#10;    c0,5.2,4.2,9.4,9.4,9.4h11.2c5.2,0,9.4-4.2,9.4-9.4v-7.5C39,21.1,38.2,20.2,37.1,20.2z M18.4,16.5h7.5c1,0,1.9,0.8,1.9,1.9&#10;    s-0.8,1.9-1.9,1.9h-7.5c-1,0-1.9-0.8-1.9-1.9S17.3,16.5,18.4,16.5z M29.6,31.5H18.4c-1,0-1.9-0.8-1.9-1.9s0.8-1.9,1.9-1.9h11.2&#10;    c1,0,1.9,0.8,1.9,1.9S30.7,31.5,29.6,31.5z"/></g><g id="cyworld"><rect fill="#FF6500" width="48" height="48"/><path fill="#FFFFFF" d="M41,24c0,9.4-7.6,17-17,17c-9.4,0-17-7.6-17-17c0-9.4,7.6-17,17-17C33.4,7,41,14.6,41,24z M24,15&#10;    c-5,0-9,4-9,9c0,5,4,9,9,9c5,0,9-4,9-9C33,19,29,15,24,15z"/><path fill="#FFFFFF" d="M18,19.6v2.3c0,0.4,0.3,0.7,0.7,0.7c0.4,0,0.7-0.3,0.7-0.7v-2.3c0-0.4-0.3-0.7-0.7-0.7&#10;    C18.3,18.9,18,19.2,18,19.6z"/><path fill="#FFFFFF" d="M28.4,19.6v2.3c0,0.4,0.3,0.7,0.7,0.7c0.4,0,0.7-0.3,0.7-0.7v-2.3c0-0.4-0.3-0.7-0.7-0.7&#10;    C28.7,18.9,28.4,19.2,28.4,19.6z"/><path fill="#FFFFFF" d="M26.3,24.8c0,1.4-1.1,2.6-2.6,2.6c-1.4,0-2.6-1.1-2.6-2.6c0-0.4-0.3-0.7-0.7-0.7c-0.4,0-0.7,0.3-0.7,0.7&#10;    c0,2.2,1.8,4,4,4c2.2,0,4-1.8,4-4c0-0.4-0.3-0.7-0.7-0.7C26.6,24.1,26.3,24.4,26.3,24.8z"/><path fill="#FFFFFF" d="M23.5,19.9l-1.6,1.6c-0.1,0.1-0.2,0.3-0.2,0.5c0,0.2,0.1,0.4,0.2,0.5l1.6,1.6c0.3,0.3,0.7,0.3,1,0&#10;    c0.1-0.1,0.2-0.3,0.2-0.5c0-0.2-0.1-0.4-0.2-0.5c0,0-0.6-0.6-1.1-1.1c0.5-0.5,1.1-1.1,1.1-1.1c0.1-0.1,0.2-0.3,0.2-0.5&#10;    c0-0.2-0.1-0.4-0.2-0.5C24.2,19.6,23.7,19.6,23.5,19.9z"/></g><g id="digg"><rect width="48" height="48"/><path fill="#FFFFFF" d="M10.5,26.1h1.6v-4.3h-1.6V26.1z M7,18.9h5.1v-4.3h3.5v14.6H7V18.9z M20.7,17.5h-3.5v-3h3.5V17.5z&#10;     M20.7,29.1h-3.5V18.9h3.5V29.1z M25.7,26.1h1.6v-4.3h-1.6V26.1z M22.3,33.4v-3h5.1v-1.4h-5.1V18.9h8.6v14.6L22.3,33.4z M35.9,26.1&#10;    h1.6v-4.3h-1.6V26.1z M32.4,33.4v-3h5.1v-1.4h-5.1V18.9H41l0,14.6L32.4,33.4z"/></g><g id="email"><g fill-rule="nonzero"><rect fill="#888888" width="48" height="48"/><path d="M35,13 L13,13 C11.26,13 10.014,14.2375 10,16 L10,32 C10,33.7625 11.26,35 13,35 L35,35 C36.74,35 38,33.7625 38,32 L38,16 C38,14.2375 36.74,13 35,13 Z M35,19 L24,26 L13,19 L13,16 L24,23 L35,16 L35,19 Z" fill="#FFFFFF"/></g></g><g id="embed"><rect fill="#F4F4F4" width="48" height="48"/><path d="M20.88,29.72 L15.36,24.2 L20.88,18.68 L19.2,17 L12,24.2 L19.2,31.4 L20.88,29.72 Z M27.12,29.72 L32.64,24.2 L27.12,18.68 L28.8,17 L36,24.2 L28.8,31.4 L27.12,29.72 Z" fill="#6F6F6F" fill-rule="nonzero"/></g><g id="facebook"><rect fill="#3B5898" width="48" height="48"/><path fill="#FFFFFF" d="M39.4,29.4l0.9-7.2h-7.2v-4.6c0-2.1,0.6-3.5,3.6-3.5h3.8V7.5c-0.7-0.1-2.9-0.3-5.6-0.3&#10;    c-5.5,0-9.3,3.4-9.3,9.6v5.3h-6.3v7.2h6.3V48h7.5V29.4H39.4z"/></g><g id="fotka"><rect fill="#529ABC" width="48" height="48"/><path fill-rule="evenodd" clip-rule="evenodd" fill="#FFFFFF" d="M29.4,17.4C20.7,17.1,7,23.8,7,23.8l0.6,0.6&#10;    c9.4-4.4,16.8-5.3,21.7-5c5.5,0.4,8.9,2,11.1,4.3l0,0l0.6-1.8C41,21.9,38.1,17.7,29.4,17.4z"/><path fill-rule="evenodd" clip-rule="evenodd" fill="#FFFFFF" d="M28.5,21.3c-2.6,0-4.7,2.1-4.7,4.7s2.1,4.7,4.7,4.7&#10;    s4.7-2.1,4.7-4.7S31.1,21.3,28.5,21.3z M29.2,26.3c-1,0-1.8-0.8-1.8-1.8s0.8-1.8,1.8-1.8s1.8,0.8,1.8,1.8S30.2,26.3,29.2,26.3z"/></g><g id="goo"><rect fill="#CE2E2D" width="48" height="48"/><path fill-rule="evenodd" clip-rule="evenodd" fill="#FFFFFF" d="M11.8,25.9c1.2,0,2.4,0,3.5,0.4c1.4,0.5,2.5,1.4,2.5,3&#10;    c0,2.7-3.3,3.4-5.4,3.4c-2.1,0-5.4-0.6-5.4-3.3c0-1.3,0.9-2.1,2-2.5v0c-1-0.3-1.8-0.9-1.8-2c0-1.1,0.8-1.8,1.8-2.1&#10;    c-0.4-0.5-0.6-1.2-0.6-1.8c0-2.2,2-3.4,4.1-3.4c0.4,0,0.9,0,1.3,0.2c-0.1-1.4,1.2-2.2,2.4-2.2c1.1,0,2.4,0.6,2.4,1.9&#10;    c0,0.6-0.5,1.2-1.2,1.2c-0.5,0-0.8-0.3-0.8-0.8c0-0.3,0.2-0.5,0.5-0.7c-0.2-0.3-0.5-0.5-0.9-0.5c-0.8,0-1.2,0.7-1.2,1.5&#10;    c1.1,0.6,1.7,1.8,1.7,3c0,2.3-2,3.6-4,3.6c-0.9,0-1.7-0.2-2.4-0.6C10,24,9.7,23.9,9.6,23.9c-0.5,0-0.8,0.5-0.8,0.9&#10;    c0,1,1.5,1.1,2.2,1.1H11.8z M15,21c0-1.3-1.2-2.2-2.5-2.2c-1.3,0-2.4,0.9-2.4,2.2c0,1.4,1.1,2.2,2.4,2.2C13.8,23.2,15,22.4,15,21z&#10;     M9.9,27.8c-0.6,0.3-1.1,0.8-1.1,1.5c0,0.8,0.7,1.4,1.4,1.6c0.7,0.2,1.6,0.3,2.3,0.3c1.2,0,3.7-0.3,3.7-2c0-1.7-2.4-1.9-3.6-1.9&#10;    C11.7,27.4,10.6,27.5,9.9,27.8z"/><path fill-rule="evenodd" clip-rule="evenodd" fill="#FFFFFF" d="M23.9,17.4c1.5,0,2.9,0.4,3.9,1.6c0.9,1.2,1.3,2.7,1.3,4.2&#10;    c0,3.2-1.8,5.9-5.2,5.9c-3.4,0-5-2.7-5-5.8C18.9,20.1,20.5,17.4,23.9,17.4z M23.9,27.6c2.6,0,3.5-2.3,3.5-4.5c0-1-0.2-2.2-0.8-3&#10;    c-0.6-0.9-1.5-1.2-2.6-1.2c-1.2,0-2.1,0.4-2.7,1.4c-0.5,0.8-0.7,2-0.7,2.9C20.6,25.3,21.4,27.6,23.9,27.6z"/><path fill-rule="evenodd" clip-rule="evenodd" fill="#FFFFFF" d="M35.8,17.4c1.5,0,2.9,0.4,3.9,1.6c0.9,1.2,1.3,2.7,1.3,4.2&#10;    c0,3.2-1.8,5.9-5.2,5.9c-3.4,0-5-2.7-5-5.8C30.7,20.1,32.4,17.4,35.8,17.4z M35.8,27.6c2.6,0,3.5-2.3,3.5-4.5c0-1-0.2-2.2-0.8-3&#10;    c-0.6-0.9-1.5-1.2-2.6-1.2c-1.2,0-2.1,0.4-2.7,1.4c-0.5,0.8-0.7,2-0.7,2.9C32.5,25.3,33.3,27.6,35.8,27.6z"/><path fill-rule="evenodd" clip-rule="evenodd" fill="#FFFFFF" d="M23.5,24.1c-0.6,0-1.2,0.6-1.2,1.2c0,0.7,0.6,1.2,1.2,1.2&#10;    c0.7,0,1.2-0.5,1.2-1.2C24.7,24.7,24.1,24.1,23.5,24.1z"/><path fill-rule="evenodd" clip-rule="evenodd" fill="#FFFFFF" d="M35.1,24.1c-0.7,0-1.2,0.6-1.2,1.2c0,0.7,0.5,1.2,1.2,1.2&#10;    c0.6,0,1.2-0.5,1.2-1.2C36.3,24.7,35.8,24.1,35.1,24.1z"/></g><g id="hi5"><rect fill="#F7F7F7" width="48" height="48"/><path fill="#394142" d="M39.8,21.8c0.9,1.1,1.3,2.6,1.1,4.1c-0.1,1.7-0.9,3.4-2.2,4.4c-1.2,1-2.9,1.7-5.1,1.7&#10;    c-1.6,0-3.2-0.3-4.5-1.1v0.7c-7.4,0-14.8,0-22.2,0c0-1.8,0-3.6,0-5.5h1.1v-4.7H7c0-1.8,0-3.7,0-5.5c2.8,0,5.5,0,8.3,0v3.9&#10;    c1.4-0.5,3.2-0.5,4.4,0.5v-0.6h2v-2.9c2.1,0,4.2,0,6.3,0v2.2l0.6-3.1c3.8,0,7.6,0,11.4,0C40,17.9,39.9,19.9,39.8,21.8z"/><path fill-rule="evenodd" clip-rule="evenodd" fill="#FFA900" d="M23.2,18.3h3.4v2.3h-3.4V18.3z M17.2,21c2.3,0,2.6,2,2.6,2.8v3.8&#10;    h1.2v2.6h-6v-2.6h0.6v-3.1c0-1.5-1.7-1-1.7,1.5v1.7h0.5v2.6H8.4v-2.6h1.1V20H8.4v-2.6h5.4V23C14.6,21.8,15.6,21,17.2,21z&#10;     M21.2,21.2h5.4v6.4h1.1v2.6h-6.5v-2.6h1.1v-3.8h-1.1V21.2z"/><path fill-rule="evenodd" clip-rule="evenodd" fill="#FFFFFF" d="M35.3,21.4c2.4,0,4.4,1.2,4.3,4.4c0,2.5-2,4.8-5.8,4.8&#10;    c-2.5,0-4.6-0.9-5.3-2.3c-0.8-1.4-0.2-3.6,1.7-3.6c1.2,0,2,0.5,1.7,1.9c-0.3,0.9,0.3,1.2,0.9,1.2c0.9,0,1.6-1,1.6-2.1&#10;    c0-1-0.4-2-1.3-2c-0.4,0-0.8,0.1-1.2,0.7L28.6,24l1.2-6.6h8.7l-0.2,3.4h-5.8L32.5,22C33.4,21.6,34.4,21.4,35.3,21.4z"/></g><g id="kakao"><g fill="none" fill-rule="evenodd"><path fill="#FFE812" d="M0 0h48v48H0z"/><g fill-rule="nonzero"><path fill="#000" d="M24 10c-8.836615 0-16 5.546833-16 12.38908 0 4.423658 2.99477 8.305218 7.499692 10.497027-.245077.830069-1.574923 5.339996-1.627846 5.694294 0 0-.031846.266214.143692.367744.175539.10153.382.022663.382.022663.503385-.069046 5.837385-3.748603 6.760616-4.387548.922308.128273 1.872.194902 2.841846.194902 8.836615 0 16-5.546682 16-12.389081C40 15.546833 32.836615 10 24 10z"/><path fill="#FFE812" d="M15.2897 27c-.512264 0-.928857-.387012-.928857-.86287v-5.367718h-1.449325c-.502666 0-.911518-.39695-.911518-.884706C12 19.39695 12.409006 19 12.911518 19h4.756364c.502666 0 .911518.39695.911518.884706 0 .487755-.409007.884706-.911518.884706h-1.449326v5.367717c0 .47586-.416592.862871-.928856.862871zm8.144832-.011746c-.387333 0-.683638-.152998-.772963-.399059l-.459939-1.171275-2.832393-.00015-.460248 1.172028c-.089015.24561-.385166.398456-.772499.398456-.20374.000203-.40513-.042326-.590443-.124687-.256055-.114899-.502202-.430833-.220139-1.283012l2.221825-5.68862c.156512-.43264.631932-.878382 1.236927-.891784.606698.013251 1.082118.459143 1.23894.892687l2.220895 5.68606c.282682.854137.036535 1.170222-.21952 1.28482-.185357.082215-.386725.124687-.590443.124536-.000154 0 0 0 0 0zm-1.721325-3.170786l-.927773-2.563765-.927773 2.563765h1.855546zm4.026128 3.050767c-.4909 0-.890154-.371651-.890154-.828235v-6.13647c0-.498297.425416-.90353.948207-.90353.522792 0 .948208.405233.948208.90353v5.308235h1.97382c.4909 0 .890154.371652.890154.828235 0 .456584-.399253.828235-.890154.828235h-2.980081zm5.160417.12002c-.512265 0-.928857-.405234-.928857-.90353v-6.181196c0-.498296.416592-.903529.928857-.903529.512264 0 .928856.405233.928856.90353v1.941985l2.59151-2.520847c.13329-.129656.31643-.201035.515205-.201035.231905 0 .464738.09728.639208.266842.162705.158118.25977.361563.273084.572838.013469.213082-.059447.408395-.204968.550099l-2.116709 2.058692 2.28638 2.946409c.149112.190929.213346.43202.178341.669365-.033445.237492-.16323.45208-.360396.595877-.160626.118763-.356948.182842-.558707.182363-.291844.00132-.567083-.131904-.742002-.359153l-2.178323-2.807567-.322313.313524v1.97135c-.000597.498956-.416225.903318-.929166.903982z"/></g></g></g><g id="linkedin"><rect fill="#0080B2" width="48" height="48"/><path fill="#FFFFFF" d="M9.4,39h6.4V18.8H9.4V39z M12.6,9C10.4,9,9,10.5,9,12.5c0,1.9,1.4,3.5,3.6,3.5l0,0c2.2,0,3.6-1.6,3.6-3.5&#10;    C16.2,10.5,14.8,9,12.6,9z M31.6,18.3c-3.4,0-4.9,2-5.8,3.3v0.1l0,0v-0.1v-2.9h-6.4c0.1,1.9,0,20.2,0,20.2h6.4V27.7&#10;    c0-0.6,0-1.2,0.2-1.6c0.5-1.2,1.5-2.5,3.3-2.5c2.3,0,3.3,1.9,3.3,4.6V39H39V27.4C39,21.2,35.8,18.3,31.6,18.3z"/></g><g id="livejournal"><rect fill="#F7F7F7" width="48" height="48"/><path fill="#00B0EA" d="M25.1,9.2c-2.2,0-4.4,0.5-6.3,1.3L15.3,7h0c-3.7,1.6-6.7,4.6-8.2,8.3l3.5,3.5 l0,0c-0.8,1.9-1.3,4.1-1.3,6.3c0,8.8,7.1,15.9,15.9,15.9C33.9,41,41,33.9,41,25.1S33.9,9.2,25.1,9.2"/><path fill="#15374C" d="M23.5,31.7C25,28,28,25,31.7,23.4h0L18.8,10.5l0,0c-3.7,1.6-6.7,4.6-8.3,8.3 L23.5,31.7z"/><path fill="#15374C" d="M32.6,27.8c-2.1,0.9-3.9,2.7-4.8,4.8l6,1.2L32.6,27.8z"/><path fill="#FFFFFF" d="M32.8,28.7l1.1,5.2C33.9,33.9,33.3,31.3,32.8,28.7"/><path fill="#FFFFFF" d="M32.6,27.8c-0.5-2.3-0.9-4.4-0.9-4.4l0,0C28,25,25,28,23.5,31.7l4.4,0.9 C28.8,30.5,30.5,28.8,32.6,27.8"/></g><g id="mail"><g fill-rule="nonzero"><rect fill="#888888" width="48" height="48"/><path d="M35,13 L13,13 C11.26,13 10.014,14.2375 10,16 L10,32 C10,33.7625 11.26,35 13,35 L35,35 C36.74,35 38,33.7625 38,32 L38,16 C38,14.2375 36.74,13 35,13 Z M35,19 L24,26 L13,19 L13,16 L24,23 L35,16 L35,19 Z" fill="#FFFFFF"/></g></g><g id="meneame"><rect fill="#FF6400" width="48" height="48"/><path fill="#FFFFFF" d="M38.3,15.7c-2.4,2.4-6.7,2.3-8.2,5.6c-1.4,3.9,1.8,10,3.2,13.5c0.9,1.8-7.1,3.6-6.1,4&#10;    c5.6-0.1,8-2.1,7.3-4.6c-0.6-2.4-3.6-7.2-3.6-11.1c0.1-2.9,3.3-3.8,5.4-5c2.4-1.1,4.7-3.5,4.1-6.4c0-1-1.8-4.4-1.1-1.8&#10;    C39.7,11.9,39.9,14.2,38.3,15.7z"/><path fill="#FFFFFF" d="M30.9,11.3c-3.1-1.6-6.5-2.5-10-1.7C19,10,16.8,11,15.5,12.8c-1.7,2-1.7,4.9-0.6,7.2c0.9,1.8,2.2,3.7,4.3,4&#10;    c1.8,0.3,3.8,0,5.3-1c-1.8,0.3-4,1-5.6-0.3c-2.8-1.8-4.1-5.8-2.4-8.7c1.3-2.5,4.1-3.3,6.9-3.4c3.8-0.2,7.5,2,8.9,2.5&#10;    c1.4,0.4,3.3,1,4.3-0.5c0.6-0.7,0.3-2.5-0.1-2.7c0.1,1.3-0.8,2.9-2.3,2.5C33,12.3,32,11.8,30.9,11.3z"/><path fill="#FFFFFF" d="M10.4,22.7c-1.8,2.8-3.4,6.1-2.8,9.5c0.6,3.6,4,6.1,7.4,6.5c3.5,0.4,7,0.3,10.6,0.1&#10;    c0.6-0.6-2.9-0.6-4.3-0.8c-3.3-0.4-7-0.4-9.8-2.4c-2.7-2-3-5.9-1.7-8.8c1.1-2.7,2.7-5.3,4.4-7.6C12.8,20.3,11.6,21.1,10.4,22.7z"/><path fill="#FFFFFF" d="M19.2,31.5c2.1,0.2,5.5-0.1,7.1,1.1c0.6,0.9-0.5,5.7-0.1,6.3c0.8,0.2,1.8-5.7,1.2-7.1&#10;    C27.1,30.6,20,31.2,19.2,31.5z"/></g><g id="mixi"><rect fill="#D1AD5A" width="48" height="48"/><path fill="#FFFFFF" d="M34.6,12C31.1,9.4,27,8.6,22.7,9.2c-5,0.6-9.1,2.9-12.1,7c-2.2,3.1-3.2,6.6-2.2,10.4c1.1,4,3.8,6.6,7.6,8.1&#10;    c2.7,1.1,5.6,1.4,8.5,1.2c0.6-0.1,0.6,0.1,0.6,0.6c0,0.8,0,1.6,0,2.5c0.1,0,0.2,0,0.3-0.1c4.3-1.5,8.1-3.8,11.1-7.3&#10;    c2.1-2.5,3.4-5.3,3.5-8.5C40.2,18.4,38.3,14.7,34.6,12z M32.2,28.7c-1.6,0-1.6,0-1.6-1.6c0-1.9,0-3.8,0-5.7c0-1-0.2-1.9-1.2-2.3&#10;    c-1.1-0.5-2.2-0.3-3.1,0.5c-0.9,0.7-1.2,1.8-1.3,2.9c0,1.9,0,3.8,0,5.7c0,0.5-0.1,0.6-0.6,0.6c-1.5,0-1.5,0-1.5-1.5&#10;    c0-1.8,0-3.6,0-5.4v-0.3c0-1.4-0.5-2.3-1.4-2.5C20.4,18.6,19,19,18.2,20c-0.6,0.8-0.8,1.7-0.8,2.6c0,1.8,0,3.6,0,5.5&#10;    c0,0.5-0.1,0.6-0.6,0.6c-1.5,0-1.5,0-1.5-1.5c0-3.1,0-6.2,0-9.4c0-0.5,0.1-0.6,0.6-0.6c1.5,0,1.5,0,1.5,1.5c0,0.1,0,0.2,0,0.4&#10;    c2.1-2.8,5.9-2.7,7.3,0.1c1.1-1.4,2.5-2.2,4.3-2.2c2,0,3.3,1.2,3.6,3.2c0.1,1.1,0.1,2.2,0.1,3.2c0,1.6,0,3.2,0,4.7&#10;    C32.7,28.5,32.6,28.7,32.2,28.7z"/></g><g id="myspace"><rect width="48" height="48"/><circle fill="#FFFFFF" cx="35.1" cy="19" r="5.4"/><circle fill="#FFFFFF" cx="22.9" cy="20.5" r="4.9"/><circle fill="#FFFFFF" cx="11.8" cy="21.9" r="4.4"/><path fill="#FFFFFF" d="M11.8,27.3c-2.8,0-4.8,2.4-4.8,5V34c0,0.2,0.2,0.4,0.4,0.4h0.2H16h0.2c0.2,0,0.4-0.2,0.4-0.4v-1.7&#10;    C16.6,29.7,14.6,27.3,11.8,27.3z"/><path fill="#FFFFFF" d="M22.9,26.5c-3.1,0-5.4,2.7-5.4,5.5v1.9c0,0.3,0.2,0.5,0.5,0.5h0.2h9.4h0.2c0.3,0,0.5-0.2,0.5-0.5V32&#10;    C28.2,29.2,26,26.5,22.9,26.5z"/><path fill="#FFFFFF" d="M35.1,25.6c-3.4,0-5.9,3-5.9,6.1v2.1c0,0.3,0.2,0.5,0.5,0.5h0.2h10.4h0.2c0.3,0,0.5-0.2,0.5-0.5v-2.1&#10;    C41,28.6,38.5,25.6,35.1,25.6z"/></g><g id="naver"><g fill="none" fill-rule="evenodd"><path fill="#00CD00" d="M0 0h48v48H0z"/><path fill="#FFF" fill-rule="nonzero" d="M27.72603 13v10.9589L20.27397 13H12v21.91781h8.27397V23.9589l7.45206 10.95891H36V13z"/></g></g><g id="odnoklassniki"><rect fill="#F6881F" width="48" height="48"/><path fill="#FFFFFF" d="M24,24.2c4.8,0,8.6-3.9,8.6-8.6c0-4.8-3.9-8.6-8.6-8.6c-4.8,0-8.6,3.9-8.6,8.6C15.4,20.4,19.2,24.2,24,24.2&#10;    z M24,11.4c2.3,0,4.2,1.9,4.2,4.2c0,2.3-1.9,4.2-4.2,4.2c-2.3,0-4.2-1.9-4.2-4.2C19.8,13.3,21.7,11.4,24,11.4z M33.9,25.3&#10;    c-0.5-1-1.8-1.8-3.6-0.4c-2.4,1.9-6.3,1.9-6.3,1.9s-3.9,0-6.3-1.9c-1.8-1.4-3.1-0.6-3.6,0.4c-0.8,1.7,0.1,2.5,2.3,3.9&#10;    c1.8,1.2,4.4,1.6,6,1.8L21,32.3c-1.9,1.9-3.8,3.8-5.1,5.1c-0.8,0.8-0.8,2,0,2.8l0.2,0.2c0.8,0.8,2,0.8,2.8,0l5.1-5.1&#10;    c1.9,1.9,3.8,3.8,5.1,5.1c0.8,0.8,2,0.8,2.8,0l0.2-0.2c0.8-0.8,0.8-2,0-2.8L27,32.3L25.7,31c1.6-0.2,4.1-0.6,6-1.8&#10;    C33.8,27.8,34.8,27,33.9,25.3z"/></g><g id="pinterest"><rect fill="#CB2027" width="48" height="48"/><path fill="#FFFFFF" d="M24,7C14.6,7,7,14.6,7,24c0,7,4.2,12.9,10.2,15.6c0-1.2,0-2.6,0.3-3.9c0.3-1.4,2.2-9.3,2.2-9.3&#10;    s-0.5-1.1-0.5-2.7c0-2.5,1.5-4.4,3.3-4.4c1.5,0,2.3,1.2,2.3,2.6c0,1.6-1,3.9-1.5,6c-0.4,1.8,0.9,3.3,2.7,3.3c3.2,0,5.4-4.1,5.4-9&#10;    c0-3.7-2.5-6.5-7.1-6.5c-5.2,0-8.4,3.8-8.4,8.1c0,1.5,0.4,2.5,1.1,3.3c0.3,0.4,0.4,0.5,0.2,0.9c-0.1,0.3-0.3,1.1-0.3,1.4&#10;    c-0.1,0.4-0.5,0.6-0.9,0.4c-2.4-1-3.5-3.6-3.5-6.5c0-4.8,4.1-10.6,12.1-10.6c6.5,0,10.8,4.7,10.8,9.7c0,6.7-3.7,11.6-9.2,11.6&#10;    c-1.8,0-3.6-1-4.2-2.1c0,0-1,3.9-1.2,4.7c-0.4,1.3-1.1,2.6-1.7,3.6c1.5,0.5,3.1,0.7,4.8,0.7c9.4,0,17-7.6,17-17&#10;    C41,14.6,33.4,7,24,7z"/></g><g id="rakuten"><rect fill="#CB2027" width="48" height="48"/><path fill="#FFFFFF" d="M24,7C14.6,7,7,14.6,7,24c0,9.4,7.6,17,17,17c9.4,0,17-7.6,17-17C41,14.6,33.4,7,24,7z M27.9,33.1&#10;    c0,0-4.1-5.7-4.2-5.9h-1.8c0,0.5,0,5.9,0,5.9h-3.5V14.9h5.9c3.4,0,6.2,2.8,6.2,6.2c0,2.2-1.2,4.3-3.1,5.3c0.3,0.4,4.8,6.7,4.8,6.7&#10;    H27.9z M24.3,18.3c0,0-2,0-2.4,0v5.4c0.4,0,2.4,0,2.4,0c1.5,0,2.7-1.2,2.7-2.7C27,19.6,25.8,18.3,24.3,18.3z"/></g><g id="reddit"><rect fill="#CEE3F8" width="48" height="48"/><circle fill="#FFFFFF" cx="35.5" cy="13.2" r="2.5"/><path fill="#FFFFFF" d="M40.2,23.7c0-1.7-1.4-3.1-3.2-3.1c-1,0-1.9,0.5-2.5,1.2c-2.6-1.8-6.4-3-10.6-3s-7.9,1.1-10.6,2.9&#10;    c-0.6-0.7-1.5-1.1-2.4-1.1c-1.8,0-3.2,1.4-3.2,3.1c0,1.3,0.8,2.4,1.9,2.9C9.5,27,9.5,27.5,9.5,28c0,5.1,6.5,9.3,14.5,9.3&#10;    s14.5-4.1,14.5-9.3c0-0.5-0.1-0.9-0.2-1.4C39.4,26.2,40.2,25,40.2,23.7z"/><path fill="#000000" d="M41,23.7c0-2.1-1.8-3.9-3.9-3.9c-1,0-1.9,0.4-2.6,1c-2.6-1.6-5.9-2.6-9.4-2.7l1.9-5.9l5.2,1.2c0.1,1.7,1.5,3.1,3.3,3.1&#10;    s3.3-1.4,3.3-3.2s-1.5-3.2-3.3-3.2c-1.3,0-2.4,0.8-3,1.9l-5.9-1.4c-0.4-0.1-0.8,0.1-0.9,0.5l-2.3,7c-3.8,0.1-7.3,1-10,2.7&#10;    c-0.7-0.6-1.6-0.9-2.5-0.9c-2.2,0-3.9,1.7-3.9,3.9c0,1.4,0.7,2.6,1.8,3.2c-0.1,0.4-0.1,0.7-0.1,1.1c0,2.7,1.6,5.3,4.6,7.2&#10;    C16.1,37,19.9,38,23.9,38s7.8-1,10.6-2.8c3-1.9,4.6-4.4,4.6-7.2c0-0.3,0-0.7-0.1-1C40.2,26.3,41,25.1,41,23.7z M35.5,11.5&#10;    c1,0,1.8,0.8,1.8,1.7c0,0.9-0.8,1.7-1.8,1.7s-1.8-0.8-1.8-1.7C33.7,12.3,34.5,11.5,35.5,11.5z M8.5,23.7c0-1.3,1.1-2.4,2.4-2.4&#10;    c0.5,0,0.9,0.1,1.2,0.3c-1.4,1.1-2.4,2.4-2.9,3.8C8.8,25,8.5,24.4,8.5,23.7z M33.7,33.9c-2.6,1.7-6.1,2.6-9.8,2.6s-7.2-0.9-9.8-2.6&#10;    c-2.5-1.6-3.9-3.7-3.9-5.9c0-0.2,0-0.3,0-0.5c0-0.5,0.2-1,0.3-1.4c0.5-1.2,1.3-2.3,2.6-3.3c0.3-0.2,0.6-0.5,0.9-0.7&#10;    c0.1-0.1,0.2-0.1,0.3-0.2c2.6-1.6,5.9-2.4,9.5-2.4s7,0.9,9.6,2.5l0.2,0.1c0.4,0.2,0.7,0.5,1,0.8c1.2,1,2,2.1,2.5,3.2&#10;    c0.2,0.5,0.3,1,0.3,1.4c0,0.2,0,0.3,0,0.5C37.6,30.2,36.3,32.3,33.7,33.9z M38.6,25.5c-0.5-1.4-1.5-2.7-2.9-3.8&#10;    c0.4-0.2,0.8-0.4,1.3-0.4c1.3,0,2.4,1.1,2.4,2.4C39.5,24.4,39.2,25.1,38.6,25.5z"/><path fill="#FF4500" d="M18.9,23.9c-1.3,0-2.4,1.1-2.4,2.3s1.1,2.3,2.4,2.3s2.3-1,2.3-2.3S20.2,23.9,18.9,23.9z"/><path fill="#FF4500" d="M29.1,23.9c-1.3,0-2.4,1.1-2.4,2.3c0,1.3,1.1,2.3,2.4,2.3s2.3-1,2.3-2.3S30.4,23.9,29.1,23.9z"/><path fill="#000000" d="M29.5,31.7c-0.3-0.3-0.8-0.3-1.1,0C27.6,32.6,26.1,33,24,33s-3.6-0.4-4.4-1.3c-0.3-0.3-0.8-0.3-1.1,0c-0.3,0.3-0.3,0.8,0,1&#10;    c1.2,1.1,3,1.7,5.5,1.7s4.3-0.6,5.5-1.7C29.8,32.5,29.8,32,29.5,31.7z"/></g><g id="skyblog"><rect fill="#00A4FE" width="48" height="48"/><path fill="#FFFFFF" d="M7,29.8c1.4,0,2.7,0,4,0c0.2,1.1,0.6,2.2,1.8,2.7c0.7,0.3,1.6,0.5,2.4,0.6c0.8,0.1,1.7-0.1,2.6-0.3&#10;    c0.9-0.2,1.5-0.8,1.7-1.8c0.2-1-0.3-1.6-1.1-2.1c-1.4-0.9-3-1.2-4.5-1.6c-1-0.3-2-0.5-3-0.8c-2.1-0.6-3.3-2.1-3.6-4.2&#10;    c-0.3-2,0.1-3.8,1.6-5.3c1-1,2.3-1.5,3.7-1.7c2-0.3,3.9-0.4,5.9,0.2c2.8,0.8,4.3,3.2,4.4,6c-1.2,0-2.5,0-3.7,0&#10;    c-0.1-0.1-0.1-0.3-0.2-0.5c-0.5-1.3-1.3-2.2-2.7-2.3c-1-0.1-2.1-0.1-3.1,0.1c-1.1,0.2-1.6,1.1-1.8,2c-0.1,1,0.6,1.7,1.5,2&#10;    c1.4,0.5,2.8,0.8,4.2,1.3c1.2,0.3,2.3,0.7,3.4,1.1c2,0.8,2.9,2.3,3.1,4.4c0.1,1.8-0.3,3.4-1.6,4.8c-1.1,1.2-2.5,1.7-4,2&#10;    c-2.4,0.4-4.8,0.4-7.1-0.5C8.6,34.9,6.8,32.2,7,29.8z"/><path fill="#FFFFFF" d="M34,41.3c-3.2-2.3-6.2-4.5-9.2-6.6c-0.1-0.1-0.2-0.5-0.1-0.7c0.2-0.7,0.5-1.4,0.9-2.2c1,0.7,2,1.4,3.2,2.2&#10;    c-0.7-2.2-1.3-4.1-2-6.1c-0.3-0.8-0.1-1.1,0.5-1.6c1.7-1.1,3.3-2.4,5-3.7c-2.4,0-4.8,0-7.1,0c-0.3-1.5-0.5-2.9-0.9-4.2&#10;    c-0.6-1.8-1.8-3.2-3.5-4.1c-0.4-0.2-0.5-0.4-0.4-0.9c0.7-2.1,1.4-4.2,2.1-6.3c0-0.1,0.1-0.2,0.2-0.4c0.6,2,1.2,3.8,1.9,5.7&#10;    c0.7,2.3,1.5,4.6,2.2,6.9c0.2,0.5,0.4,0.6,0.9,0.6c4.1,0,8.2,0,12.4,0c0.2,0,0.5,0,1,0c-0.6,0.4-1,0.8-1.4,1.1&#10;    c-3.1,2.3-6.2,4.5-9.4,6.8c-0.4,0.3-0.5,0.5-0.3,0.9c1.3,4,2.6,8,3.9,12.1C33.8,40.8,33.9,41,34,41.3z"/></g><g id="skype"><g fill="none" fill-rule="evenodd"><path fill="#00AFF0" d="M0 0h48v48H0z"/><path d="M30.272 29.452c-.526.75-1.297 1.337-2.313 1.76-1.014.426-2.217.638-3.609.638-1.668 0-3.044-.29-4.129-.87a5.342 5.342 0 0 1-1.873-1.671c-.48-.696-.72-1.374-.72-2.033 0-.381.143-.709.432-.98.288-.274.655-.41 1.1-.41.362 0 .669.106.918.32.25.212.464.525.64.943.215.495.447.91.698 1.241.249.333.602.608 1.054.823.454.215 1.05.324 1.788.324 1.014 0 1.84-.216 2.474-.653.633-.433.952-.978.952-1.629 0-.515-.172-.936-.514-1.256-.342-.323-.784-.568-1.326-.738a23.907 23.907 0 0 0-2.175-.541c-1.214-.26-2.231-.568-3.05-.918-.817-.35-1.468-.827-1.948-1.432-.48-.606-.72-1.357-.72-2.255 0-.857.252-1.616.76-2.28.508-.666 1.241-1.178 2.204-1.535.96-.357 2.09-.535 3.39-.535 1.037 0 1.935.119 2.692.355.757.237 1.384.552 1.884.945.5.393.866.804 1.096 1.236.23.43.346.853.346 1.26 0 .375-.143.716-.432 1.015-.288.3-.647.452-1.077.452-.394 0-.692-.09-.895-.271-.204-.18-.425-.476-.663-.886-.308-.587-.675-1.045-1.108-1.373-.43-.33-1.121-.494-2.075-.494-.883 0-1.596.177-2.138.535-.543.356-.814.787-.814 1.29 0 .309.094.58.278.806.183.227.437.42.76.583.323.162.65.29.98.383.33.092.876.225 1.639.402.952.206 1.814.433 2.587.68.773.248 1.43.548 1.972.9a3.83 3.83 0 0 1 1.269 1.345c.303.54.456 1.203.456 1.988 0 .94-.265 1.786-.79 2.536m7.133-5.83c0-7.393-5.987-13.386-13.373-13.386-.691 0-1.364.067-2.026.168a7.595 7.595 0 0 0-4.951-1.833c-4.211 0-7.626 3.418-7.626 7.636 0 1.72.576 3.302 1.536 4.579a13.502 13.502 0 0 0-.306 2.837c0 7.395 5.986 13.388 13.373 13.388.949 0 1.874-.103 2.767-.292a7.574 7.574 0 0 0 5.003 1.883c4.212 0 7.627-3.417 7.627-7.633a7.599 7.599 0 0 0-2.19-5.348c.099-.656.166-1.318.166-1.998" fill="#FFF"/></g></g><g id="stumbleupon"><g width="48" height="48" fill="none" fill-rule="evenodd"><path fill="#FF8226" d="M0 0h48v48H0z"/><g fill="#FFF"><path d="M10 25.223v9.968c0 1.538 1.26 2.784 2.815 2.784s2.816-1.246 2.816-2.784V19.954c-.162 2.937-2.621 5.269-5.631 5.269M37.774 10c-6.126 0-11.092 4.912-11.092 10.97v3.415c0-1.538 1.26-2.784 2.815-2.784s2.816 1.246 2.816 2.784v1.417c0 1.538 1.26 2.784 2.815 2.784s2.815-1.246 2.815-2.784v-15.8L37.774 10" opacity=".3"/><path d="M10 25.286c3.01 0 5.469-2.332 5.63-5.269v-2.612c0-.071.004-.142.01-.212.11-1.439 1.323-2.572 2.806-2.572 1.555 0 2.815 1.247 2.815 2.784V28.3c0 1.537 1.26 2.784 2.815 2.784s2.815-1.246 2.816-2.784V20.97c0-6.058 4.966-10.97 11.092-10.97H10v15.286z" opacity=".7"/><path d="M10 25.223v9.968c0 1.538 1.26 2.784 2.815 2.784s2.816-1.246 2.816-2.784V19.954c-.162 2.937-2.621 5.269-5.631 5.269M37.774 10c-6.126 0-11.092 4.912-11.092 10.97v3.415c0-1.538 1.26-2.784 2.815-2.784s2.816 1.246 2.816 2.784v1.417c0 1.538 1.26 2.784 2.815 2.784s2.815-1.246 2.815-2.784v-15.8L37.774 10" opacity=".5"/><path d="M10 25.286c3.01 0 5.469-2.332 5.63-5.269v-2.612c0-.071.004-.142.01-.212.11-1.439 1.323-2.572 2.806-2.572 1.555 0 2.815 1.247 2.815 2.784V28.3c0 1.537 1.26 2.784 2.815 2.784s2.815-1.246 2.816-2.784V20.97c0-6.058 4.966-10.97 11.092-10.97H10v15.286z"/></g></g></g><g id="tuenti"><rect fill="#0C78BD" width="48" height="48"/><path fill="#FFFFFF" d="M38.9,34.6c-0.1-0.1-0.1-0.2-0.1-0.3c0-4.8,0-9.5,0-14.3c0-0.1,0-0.2,0.1-0.3c0,0.3,0.1,0.6,0.1,1&#10;    c0,4.2,0,8.3,0,12.5C39,33.6,39,34.1,38.9,34.6z"/><path fill="#FFFFFF" d="M28,9c-0.1,0.1-0.2,0.1-0.3,0.1c-2.5,0-5,0-7.5,0c-0.1,0-0.2,0-0.3-0.1c0.2,0,0.4,0,0.6,0&#10;    c2.3,0,4.6,0,6.9,0C27.6,9,27.8,9,28,9z"/><path fill="#FFFFFF" d="M9,20.1c0.1,0.1,0.1,0.2,0.1,0.3c0,2.4,0,4.8,0,7.2c0,0.1,0,0.2-0.1,0.3c0-0.3,0-0.6,0-0.9&#10;    c0-2.1,0-4.2,0-6.3C9,20.5,9,20.3,9,20.1z"/><path fill="#FFFFFF" d="M20.2,39c0.1-0.1,0.2-0.1,0.3-0.1c4.2,0,8.5,0,12.7,0c0.1,0,0.2,0,0.3,0.1l-0.2,0c-4.3,0-8.6,0-12.9,0&#10;    L20.2,39z"/><path fill="#FFFFFF" d="M38.9,20.5c0-0.3-0.1-0.6,0-0.8c0-0.3,0-0.5-0.1-0.8c-0.7-4.1-2.9-7.1-6.7-8.9c-1.3-0.6-2.7-1-4.2-1&#10;    c-0.2,0.1-0.4,0-0.5,0c-2.3,0-4.6,0-7,0c-0.2,0-0.4,0.1-0.6,0c-0.3,0-0.7,0-1,0.1c-4.2,0.7-7.2,3-9,6.8c-0.6,1.3-0.9,2.7-0.9,4.1&#10;    c0.1,0.2,0,0.4,0,0.6c0,2.2,0,4.5,0,6.7c0,0.2,0.1,0.4,0,0.6c0,0.4,0,0.8,0.1,1.2c0.7,4,2.9,7,6.5,8.8c1.4,0.7,2.9,1.1,4.5,1.1&#10;    c0.1,0,0.2,0,0.3,0c4.3,0,8.5,0,12.8,0c0.1,0,0.2,0,0.3,0c0.9,0,1.9,0,2.8-0.2c1.2-0.2,2-0.8,2.3-2c0.2-0.7,0.3-1.5,0.3-2.2&#10;    c-0.1-0.5,0-0.9,0-1.4C38.9,29,38.9,24.7,38.9,20.5z M22.3,27.3c-0.7,1.4-1.4,2.9-2.1,4.3c-0.3,0.7-1.1,1-1.8,0.8&#10;    c-0.7-0.2-1.2-0.8-1.2-1.6c0-0.2,0.1-0.5,0.2-0.7c0.7-1.4,1.4-2.8,2-4.2c0.4-0.8,1.3-1.2,2.1-0.8C22.4,25.5,22.7,26.5,22.3,27.3z&#10;     M20.9,21.4c-1.1,0-2-0.9-2-2c0-1.1,0.9-2,2-2c1.1,0,2,0.9,2,2C22.9,20.6,22,21.4,20.9,21.4z M28.6,31.8c-0.4,0.6-1.1,0.9-1.8,0.6&#10;    c-0.7-0.2-1.1-0.9-1-1.6c0-0.3,0.1-0.5,0.3-0.7c2.5-4.1,2.5-8.1,0-12.2c-0.3-0.5-0.4-1.1-0.1-1.6c0.3-0.5,0.8-0.8,1.4-0.8&#10;    c0.5,0,0.9,0.3,1.2,0.7c1.3,2,2.1,4.2,2.3,6.6c0,0.4,0.1,0.8,0.1,1.2C31,26.8,30.2,29.5,28.6,31.8z"/></g><g id="tumblr"><rect fill="#385874" width="48" height="48"/><path fill="#FFFFFF" d="M25.3,7v8.6h9.3v5.3h-9.3v8.7c0,2,0.1,3.2,0.3,3.8c0.2,0.6,0.6,1,1.2,1.3c0.8,0.5,1.7,0.7,2.7,0.7&#10;    c1.8,0,3.6-0.6,5.4-1.7v5.4c-1.5,0.7-2.9,1.2-4.1,1.4c-1.2,0.3-2.6,0.4-4,0.4c-1.6,0-3.1-0.2-4.3-0.6c-1.3-0.4-2.3-1-3.2-1.7&#10;    c-0.9-0.7-1.5-1.5-1.8-2.3s-0.5-2-0.5-3.6V20.9h-4v-4.8c1.4-0.4,2.6-1.1,3.6-1.9c1-0.8,1.8-1.8,2.4-2.9c0.6-1.1,1-2.6,1.2-4.3H25.3&#10;    z"/></g><g id="twitter"><rect fill="#55ACEE" width="48" height="48"/><path fill="#FFFFFF" d="M40,14.1c-1.2,0.5-2.4,0.9-3.8,1c1.4-0.8,2.4-2.1,2.9-3.6c-1.3,0.8-2.7,1.3-4.2,1.6&#10;    C33.8,11.8,32,11,30.2,11c-3.6,0-6.6,2.9-6.6,6.6c0,0.5,0.1,1,0.2,1.5c-5.5-0.3-10.3-2.9-13.5-6.9c-0.6,1-0.9,2.1-0.9,3.3&#10;    c0,2.3,1.2,4.3,2.9,5.5c-1.1,0-2.1-0.3-3-0.8v0.1c0,3.2,2.3,5.8,5.3,6.4c-0.6,0.1-1.1,0.2-1.7,0.2c-0.4,0-0.8,0-1.2-0.1&#10;    c0.8,2.6,3.3,4.5,6.1,4.6c-2.2,1.8-5.1,2.8-8.2,2.8c-0.5,0-1.1,0-1.6-0.1C10.9,36,14.4,37,18.1,37c12.1,0,18.7-10,18.7-18.7&#10;    c0-0.3,0-0.6,0-0.8C38,16.6,39.1,15.4,40,14.1z"/></g><g id="vkontakte"><rect fill="#42678E" width="48" height="48"/><path fill="#FFFFFF" d="M34.6,33.7h-0.2c-1.7-0.3-2.9-1.5-3.9-2.6c-0.6-0.6-1.4-2.1-2.5-1.9c-1.5,0.2-0.7,2.7-1.4,3.8&#10;    c-0.5,0.9-2.6,0.7-4.1,0.6c-4.6-0.5-6.9-2.9-9-5.5c-2.2-2.8-3.9-5.7-5.5-9C7.7,18,7,16.9,7,15.6c0.7-0.6,2-0.4,3.2-0.4&#10;    c1,0,2.7-0.2,3.4,0.2c0.5,0.2,0.9,1.4,1.3,2.2c0.8,1.8,1.6,3.1,2.6,4.5c0.4,0.6,1.1,1.8,1.9,1.7c0.8-0.2,0.8-2,0.9-3.2&#10;    c0-1.4,0-3.1-0.4-3.8c-0.4-0.7-1.1-0.7-1.8-1.1c0.6-1.2,2.2-1.3,4.1-1.3c1.6,0,3.8-0.2,4.5,0.9c0.6,1.1,0.2,3,0.2,4.4&#10;    c0,1.6-0.3,3.3,0.8,4c0.9-0.1,1.3-0.9,1.8-1.6c1.1-1.4,1.8-2.7,2.6-4.5c0.3-0.8,0.7-2.1,1.4-2.3c1-0.4,2.5-0.1,3.9-0.1&#10;    c1.2,0,3.2-0.3,3.6,0.5c0.3,0.7-0.6,2.3-0.9,2.8c-1.1,1.7-2.1,2.8-3.3,4.4c-0.5,0.6-1.4,1.6-1.4,2.5c0,0.7,0.8,1.3,1.4,1.8&#10;    c1.2,1.1,2.1,2,3.1,3.2c0.4,0.5,1.2,1.5,1.1,2.1C40.8,34.5,36.2,33.2,34.6,33.7z"/></g><g id="weibo"><g fill="none" fill-rule="evenodd"><path fill="#FFF" d="M0 0h48v48H0z"/><g fill-rule="nonzero"><path d="M9 29c0 4.419 5.598 8 12.5 8S34 33.419 34 29c0-4.419-5.598-8-12.5-8S9 24.581 9 29" fill="#FFF"/><path d="M20.931 36.783c-5.884.614-10.964-2.186-11.347-6.244-.382-4.063 4.08-7.847 9.96-8.46 5.884-.614 10.964 2.185 11.341 6.243.388 4.063-4.075 7.853-9.954 8.46M32.695 23.3c-.5-.16-.844-.263-.584-.954.569-1.5.628-2.794.01-3.722-1.152-1.733-4.31-1.64-7.929-.047 0 0-1.138.521-.843-.422.554-1.882.47-3.455-.393-4.368-1.961-2.067-7.183.078-11.66 4.785C7.946 22.094 6 25.832 6 29.064 6 35.241 13.537 39 20.907 39 30.57 39 37 33.096 37 28.41c.005-2.836-2.265-4.445-4.305-5.11" fill="#E6162D"/><path d="M39.664 12.048a8.956 8.956 0 0 0-8.628-2.845c-.709.154-1.158.867-1.007 1.584.152.722.846 1.18 1.555 1.025a6.368 6.368 0 0 1 6.133 2.022 6.654 6.654 0 0 1 1.347 6.421 1.339 1.339 0 0 0 .846 1.68 1.306 1.306 0 0 0 1.649-.857v-.004c.964-3.028.354-6.49-1.895-9.026" fill="#F93"/><path d="M35.906 15.554c-1.056-1.297-2.612-1.791-4.045-1.448-.587.136-.96.782-.838 1.433.128.65.706 1.064 1.288.923.701-.167 1.465.076 1.98.706.514.636.655 1.499.432 2.256-.182.63.127 1.311.7 1.518.574.202 1.184-.141 1.37-.777.45-1.549.169-3.315-.887-4.611" fill="#F93"/><path d="M21.23 30.284c-.202.358-.647.528-.992.378-.344-.144-.45-.548-.253-.897.2-.349.627-.518.967-.378.344.13.469.533.277.897m-1.833 2.442c-.555.921-1.747 1.325-2.642.902-.88-.42-1.144-1.49-.589-2.393.55-.897 1.7-1.295 2.59-.907.9.404 1.187 1.466.641 2.398m2.087-6.529c-2.733-.743-5.82.678-7.008 3.185-1.21 2.556-.038 5.397 2.72 6.324 2.862.962 6.231-.514 7.404-3.27 1.158-2.7-.287-5.476-3.116-6.239" fill="#000"/></g></g></g><g id="wykop"><rect fill="#337EAD" width="48" height="48"/><path fill="#FFFFFF" d="M40.5,16.6c-0.4-2.9-1.8-5.2-4.7-6.3c-1.3-0.5-2.7-0.8-4.1-0.9c-2.6-0.3-5.2-0.3-7.6-0.3&#10;    c-3.2,0-6.2,0-9.2,0.4c-4.8,0.7-7.2,3.4-7.7,7.9C7,20,7,22.6,7,25.2c0.1,2.3,0.1,4.5,0.6,6.8c0.6,3,2.3,5.1,5.3,6&#10;    c1.5,0.5,3.1,0.7,4.7,0.8c3.1,0.3,6.3,0.1,9.4,0.1c2.3,0,4.6-0.1,6.8-0.6c3.4-0.7,5.7-2.5,6.5-6c0.4-1.6,0.6-3.2,0.6-4.8&#10;    C41,24,41.1,20.3,40.5,16.6z M37.1,28.9c-0.1,1.2-0.3,2.4-0.9,3.5c-0.7,1.4-1.9,2-3.4,2.2C30,35.1,27,35,24,35.1&#10;    c-2.7,0-5.3-0.1-8-0.3c-3.1-0.2-4.7-1.9-5.1-5.1c-0.4-3.5-0.4-7-0.1-10.5c0.1-0.9,0.2-1.8,0.5-2.7c0.6-1.9,1.9-2.9,3.7-3.2&#10;    C17.1,13,19,13,21,13c3.3-0.1,6.5,0,9.8,0.1c0.8,0,1.6,0.2,2.4,0.3c2.2,0.4,3.2,1.9,3.7,3.9c0.3,1.3,0.4,2.7,0.4,4&#10;    C37.3,23.8,37.3,26.4,37.1,28.9z"/><path fill="#FFFFFF" d="M35,25.8c0,0.2-0.2,0.2-0.4,0.3c-2.5,1.2-5,2.5-7.5,3.7c-2.5,1.2-5,2.4-7.4,3.7c-0.4,0.2-0.6,0.2-0.8-0.2&#10;    c-1.8-3.7-3.6-7.4-5.4-11c-0.2-0.3-0.1-0.5,0.2-0.6c1-0.5,2.1-1,3.1-1.5c0.4-0.2,0.5-0.1,0.7,0.3c1.4,3,2.9,5.9,4.3,8.9&#10;    c0.3,0.5,0.5,0.5,0.9,0.3c1.4-0.7,1.4-0.7,0.7-2.1c-1.3-2.7-2.6-5.4-4-8.1c-0.2-0.4-0.2-0.5,0.2-0.7c1-0.5,2-0.9,3-1.5&#10;    c0.4-0.2,0.6-0.2,0.8,0.3c1.4,2.9,2.9,5.9,4.3,8.8c0.2,0.5,0.4,0.6,0.9,0.3c1.4-0.7,1.4-0.7,0.7-2.1c-1.3-2.7-2.6-5.4-4-8.1&#10;    c-0.2-0.4-0.2-0.5,0.2-0.7c1.1-0.5,2.1-1,3.1-1.5c0.3-0.1,0.4-0.2,0.6,0.2c1.8,3.7,3.7,7.5,5.5,11.2C34.9,25.7,34.9,25.7,35,25.8z"/></g><g id="yahoo"><rect fill="#592C71" width="48" height="48"/><path fill="#FFFFFF" d="M36.8,7L36.8,7L36.8,7c-1.6,0.4-3.1,0.4-4.5,0c-1.3,2.4-6,10.1-9,15c-3-5-6.6-10.8-9-15&#10;    c-1.9,0.4-2.6,0.4-4.5,0c3.7,5.5,9.6,16.1,11.6,19.6L21.1,41c0,0,1.3-0.2,2.2-0.2c1,0,2.1,0.2,2.1,0.2l-0.3-14.4&#10;    C28.9,20,35.1,9.3,36.8,7z"/></g></defs></svg>