<svg xmlns="http://www.w3.org/2000/svg"><defs><g id="ameba"><g fill-rule="nonzero" fill="none"><path d="M28.486325 59.9692983c-6.6364044-.569063-11.5630204-2.3269562-16.3219736-5.8239328C4.44376336 48.4721167 0 39.6467923 0 29.9869344 0 15.1115596 10.506778 2.79838844 25.2744118.36718043 31.302519-.62523147 37.978265.41644488 43.5623517 3.2208101 57.138627 10.0389054 63.3436513 25.7618627 58.2050226 40.3239688c-3.5279559 9.9977054-12.7897094 17.6177847-23.3910729 19.2449379-2.0856252.3201125-5.0651487.5086455-6.3276247.4003916z" fill="#40B14A"/><path d="M44.0690432 48.6900794c.6178376-.2133332.8763502-.3884595 1.5290941-1.0358741.6421654-.636923.8538628-.9410708 1.1598081-1.6663101.3429133-.8128734.3747639-.9851562.3803005-2.0571357.0058537-1.1333833-.0069374-1.1962076-.4092429-2.0094048-.3100793-.6267835-.6125142-1.0252689-1.1938217-1.5729697-.9978663-.9401748-1.631428-1.2533904-3.1870173-1.5755727-1.7962852-.3720317-2.1434692-.6308512-2.1434692-1.5979108 0-.4940854.3668974-1.0099101.8582615-1.2066399.1691751-.0677339.8862722-.243923 1.5935513-.3915335 2.4277701-.506678 3.7431407-1.2092322 4.4377504-2.3702546.5680208-.9494342.811782-1.9989113.7481261-3.220949-.087339-1.6767202-.7363104-2.5807773-2.6708367-3.720645-1.1763717-.693144-1.3961923-.9020307-1.8024711-1.7128077-.2283257-.4556513-.3258931-.8906173-.4353855-1.9409834-.1544885-1.4820184-.3033986-1.88804216-.9369355-2.55468277-.630737-.66369609-1.0234385-.80959262-2.3959088-.89012754-1.4170541-.08315209-1.9828774-.2994609-2.5047207-.95752876-.5024169-.63357034-.8290633-1.460721-1.146764-2.90388307-.3350094-1.52178868-.6514976-2.20006369-1.345362-2.88328291C33.6201975 11.45287267 32.3967858 11 30.7636701 11c-2.2258765 0-3.4713208.91271231-4.3238291 3.16868033-.6214395 1.64449362-1.1867919 2.01457972-3.5515749 2.3249005-1.5441645.20263392-1.7131699.24279005-2.33650412.55517439-.69228599.34693886-.92060466.62568959-1.45014216 1.77046069-.25303651.54702216-.55816906 1.13218567-.67807104 1.30036355-.34046963.47755827-1.0311674.81660749-2.53519458 1.24447434-.76335544.2171596-1.65261401.5239964-1.97612926.6818583-.72339226.3529876-1.82249885 1.3521629-2.20559824 2.0050674-1.24133875 2.115572-.80703603 5.1725723.98759163 6.951548.70184198.6957204 1.01829995.8635514 2.32530925 1.2332161 1.2299094.3478571 1.74966085.993226 1.59542641 1.9810224-.09176165.5876875-.25673703.874775-1.1511209 2.0031653-.94858067 1.1967657-1.18570474 1.833568-1.18026143 3.1696128.00817206 2.0070503 1.25766956 3.8978179 2.90256984 4.3922493.28272421.0849823.92162884.1545136 1.41978827.1545136 2.25517248 0 2.95938083.3540309 4.19113513 2.1070365.633408.9014514.9017512 1.1510656 1.5411008 1.4335309.9344972.4128629 1.9508208.5180684 3.077644.3185839 2.0822418-.3686222 3.4808786-1.4237604 4.5002409-3.3950017.832134-1.6091788 1.4048192-2.1275994 2.350298-2.1275994.9113338 0 1.3839245.5170845 2.0516942 2.2448579.5679489 1.4695005 1.1546305 2.3643957 1.9780862 3.0172754 1.7725133 1.4053436 3.8463814 1.8202994 5.7729142 1.1550889zM23.0443977 24.1462938c-.6107123-.6111834-.1753498-1.6130415.7009539-1.6130415.5557217 0 .9551638.3941977.9551638.9426216 0 .8532939-1.0490463 1.2779633-1.6561177.6704199zm10.3264336-.0212327c-.5829917-.6282828-.1578488-1.5918088.7023634-1.5918088.557104 0 .9573381.3940815.9573381.9426216 0 .8673068-1.069227 1.2855326-1.6597015.6491863v9e-7z" fill="#FFF"/></g></g><g id="bebo"><g fill="none" fill-rule="evenodd"><path d="M30 0C13.4313793 0 0 13.4313793 0 30s13.4313793 30 30 30 30-13.4313793 30-30S46.5686207 0 30 0z" fill="#FF001A" fill-rule="nonzero"/><path d="M39.3367626 44.2374102c-4.9047301 2.7167565-8.3747532 2.0760984-9.7761257 2.0760984-7.1335922.1421143-13.8054936-5.8272584-13.8054936-14.7455743V16.5946055C15.7551433 15.67844 15.5103473 13 18.398411 13s2.9369642 2.5203128 2.9369642 3.5946055v14.9733288c-.029076.9837913-.2029443 3.4610695 1.2183995 5.4152126 1.6169456 2.2227879 3.9991173 4.1825069 7.0051001 4.1825069 3.7601951 0 6.0574885-.1787151 8.3703477-2.4305263 2.1253341-1.9229752 2.6432678-4.6124241 2.6432678-6.1478019 0-1.9361286-.603693-4.8015762-3.3775088-6.8626625-2.2428127-1.5485312-3.7328814-1.7156656-6.6081693-1.7156656-4.4904713 0-4.479164-5.4329412 0-5.4329412 2.790997 0 6.2110918.4843896 8.9577406 2.2875542C43.2987272 23.3281642 46 28.3487737 46 31.5354796c-.0071956 5.4593911-2.3939195 10.2137865-6.6632374 12.7019306z" fill="#FFF"/></g></g><g id="blogger"><g fill="none" fill-rule="evenodd"><path d="M28.4863253 59.9692983c-6.6364044-.569063-11.5630204-2.3269561-16.3219736-5.8239327C4.44376366 48.4721168 3e-7 39.6467924 3e-7 29.9869344c0-14.8753747 10.506778-27.18854591 25.2744118-29.61975392 6.0281072-.9924119 12.7038532.04926445 18.2879399 2.85362966C57.1386273 10.0389054 63.3436516 25.7618627 58.2050229 40.3239688 54.677067 50.3216743 45.4153135 57.9417536 34.81395 59.5689067c-2.0856252.3201125-5.0651487.5086456-6.3276247.4003916z" fill="#F57D00" fill-rule="nonzero"/><path d="M35.8273333 36.7781555H24.045c-.944 0-1.592-.5735923-1.592-1.5222386 0-.9493136.648-1.5225723 1.592-1.5225723h11.7823333c.944 0 1.592.5732587 1.592 1.5225723 0 .9486463-.648 1.5222386-1.592 1.5222386M24.0446667 23.2381737h6.5086666c.8886667 0 1.6086667.6066264 1.6086667 1.4995484 0 .8932558-.72 1.5155651-1.6086667 1.5155651h-6.5086666c-.8886667 0-1.6086667-.6223093-1.6086667-1.5155651 0-.892922.72-1.4995484 1.6086667-1.4995484M42.742 26.2469473c-.2083333 0-.8533333.0106777-1.8556667.0106777-1.3863333 0-1.2346666-1.2973397-1.2346666-1.2973397 0-5.4276047-4.42-9.9602853-9.757-9.9602853h-5.2313334C19.3263333 15 15 19.3998768 15 24.8274815v10.3613661c0 5.4276047 4.3263333 9.8274815 9.6633333 9.8274815H35.243c5.337 0 9.6633333-4.3998768 9.6633333-9.8274815 0 0 .0936667-3.7829063.0936667-6.5711188 0-1.356067-1.039-2.3707815-2.258-2.3707815" fill="#FFF"/></g></g><g id="cyworld"><g fill="none" fill-rule="evenodd"><circle fill="#F15623" cx="30" cy="30" r="30"/><path d="M29.9934915 38.3940442c-3.6424799 0-7.1037358-3.0281835-6.9503002-6.8518872.0279729-.6982151.4468281-1.2286849 1.2003427-1.2286849.6837208 0 1.2140061.5445025 1.2140061 1.2141907.0279729 2.4843272 2.0514394 4.4937612 4.5359514 4.4937612 2.4978982 0 4.5213648-2.009434 4.54943-4.4937612 0-.6696882.5297313-1.2141907 1.2138215-1.2141907.7536992 0 1.1723698.5304698 1.2001581 1.2286849.1533432 3.8237037-3.3072665 6.8518872-6.9634096 6.8518872zm-.5864158-8.2196982l-2.3305223-2.330707-.4190399-.4050072c-.3626323-.376665-.4462741-.9207059-.2510176-1.3673493.0558535-.139403.1397722-.2654196.2510176-.3770343l2.7495622-2.7491929c.4744318-.4742471 1.2559193-.4742471 1.7308127 0 .4738778.474801.4738778 1.2560116 0 1.7309972l-1.8842483 1.8836943 1.8842483 1.8836943c.4738778.4746164.4738778 1.2561963 0 1.7308126-.4748934.4749857-1.2563809.4749857-1.7308127.0000923zm-7.4104223-3.9775085c0 .6700575-.5582581 1.214006-1.228131 1.214006-.6837208 0-1.2279464-.5440409-1.2279464-1.214006v-3.8936822c0-.6696882.5442256-1.2279464 1.2279464-1.2279464.6698729 0 1.228131.5582582 1.228131 1.2279464v3.8936822zm16.0071548 0v-3.8936822c0-.6696882.5582581-1.2279464 1.2283156-1.2279464.6696883 0 1.2275771.5582582 1.2275771 1.2279464v3.8936822c0 .6700575-.5578888 1.214006-1.2275771 1.214006-.6700575 0-1.2283156-.5440409-1.2283156-1.214006zM14 29.9931222c0 8.8470115 7.1593123 16.0072471 15.9934915 16.0072471C38.8408723 46.0003693 46 38.8401337 46 29.9931222 46 21.1589431 38.8408723 14 29.9934915 14 21.15922 13.9999077 14 21.1588507 14 29.9931222z" fill="#FFF"/></g></g><g id="digg"><g fill="none" fill-rule="evenodd"><circle fill="#1B5891" cx="30" cy="30" r="30"/><g fill="#FFF" fill-rule="nonzero"><path d="M15.76923077 18v5.83333333H9V38h11V18h-4.23076923zm0 16.6666667h-2.53846154v-7.50000003h2.53846154v7.50000003zM22 24h4v14h-4zM22 18h4v4h-4zM27 24v14.0434783h6.7692308v1.6521739H27V43h11V24H27zm6.7692308 10.7391304h-2.5384616v-7.43478257h2.5384616v7.43478257zM40 24v14.0434783h6.7692308v1.6521739H40V43h11V24H40zm6.7692308 10.7391304h-2.5384616v-7.43478257h2.5384616v7.43478257z"/></g></g></g><g id="email"><g fill-rule="nonzero" fill="none"><path d="M28.4863253 59.9692983c-6.6364044-.569063-11.5630204-2.3269561-16.3219736-5.8239327C4.44376366 48.4721168 3e-7 39.6467924 3e-7 29.9869344c0-14.8753747 10.506778-27.18854591 25.2744118-29.61975392 6.0281072-.9924119 12.7038532.04926445 18.2879399 2.85362966C57.1386273 10.0389054 63.3436516 25.7618627 58.2050229 40.3239688 54.677067 50.3216743 45.4153135 57.9417536 34.81395 59.5689067c-2.0856252.3201125-5.0651487.5086456-6.3276247.4003916z" fill="#888"/><path d="M40.531502 19.160814h-22c-1.74 0-2.986 1.2375-3 3v16c0 1.7625 1.26 3 3 3h22c1.74 0 3-1.2375 3-3v-16c0-1.7625-1.26-3-3-3zm0 6l-11 7-11-7v-3l11 7 11-7v3z" fill="#FFF"/></g></g><g viewBox="0 0 36 36" id="embed"><circle cx="18" cy="18" r="17.5" stroke="#E7E7E7" fill="#F4F4F4" stroke-width=".5"/><path d="m21.41,23.29l-0.71,-0.71l4.59,-4.58l-4.59,-4.59l0.71,-0.71l5.3,5.3l-5.3,5.29zm-6.12,-0.7l-4.58,-4.59l4.59,-4.59l-0.71,-0.7l-5.3,5.29l5.29,5.29l0.71,-0.7z" fill="#606060"/></g><g id="facebook"><g fill="none" fill-rule="evenodd"><path d="M28.4863253 59.9692983c-6.6364044-.569063-11.5630204-2.3269561-16.3219736-5.8239327C4.44376366 48.4721168 3e-7 39.6467924 3e-7 29.9869344c0-14.8753747 10.506778-27.18854591 25.2744118-29.61975392 6.0281072-.9924119 12.7038532.04926445 18.2879399 2.85362966C57.1386273 10.0389054 63.3436516 25.7618627 58.2050229 40.3239688 54.677067 50.3216743 45.4153135 57.9417536 34.81395 59.5689067c-2.0856252.3201125-5.0651487.5086456-6.3276247.4003916z" fill="#3B5998" fill-rule="nonzero"/><path d="M25.7305108 45h5.4583577V30.0073333h4.0947673l.8098295-4.6846666h-4.9045968V21.928c0-1.0943333.7076019-2.2433333 1.7188899-2.2433333h2.7874519V15h-3.4161354v.021c-5.3451414.194-6.4433395 3.2896667-6.5385744 6.5413333h-.0099897v3.7603334H23v4.6846666h2.7305108V45z" fill="#FFF"/></g></g><g id="fotka"><g fill="none" fill-rule="evenodd"><circle fill="#4FA4CA" cx="30" cy="30" r="30"/><g fill="#FFF"><path d="M10.07905138 27.7213439c-.21384016-8.4391984 3.30826952-12.62274583 6.40316206-13.96553856 2.46173277-1.06808132 7.79011236-1.68663538 14.61246296-1.68663538 7.7583816 0 12.0884306.86212649 14.7764328 3.36632288C50.2663675 19.530203 49.9833251 26.119062 49.9833251 27.7213439c0 2.5821872-.4532331 7.9242836-1.7264699 10.132164-.8488245 1.4719203-2.2662426 2.9320292-4.2522542 4.3803267-.6585556.6757967-1.0957571 1.4220243-1.3116045 2.2386827-.323771 1.2249876.2751359 2.6673666.5972085 3.1879941.3220727.5206274-.465178.2752478-1.138062 0-.7336083-.3000877-2.1581645-.8223969-3.8949018-1.3938211-1.7367372-.5714241-2.7406281-.755234-5.8585258-1.2414309-2.4853318-.3875562-5.6181685-.6970278-8.4867527-1.0225729-2.3979766-.2721375-4.52197455-.4321964-6.31515563-1.134974-2.52130682-.9881423-4.39368207-2.6984005-5.85767664-5.2898037-1.23068134-2.1784176-1.53762192-5.0237968-1.66007905-9.8565649zm20.00000002 9.1798419c4.9771116 0 9.0118577-4.0347462 9.0118577-9.0118577 0-4.9771116-4.0347461-9.01185774-9.0118577-9.01185774-4.9771116 0-9.0118577 4.03474614-9.0118577 9.01185774 0 4.9771115 4.0347461 9.0118577 9.0118577 9.0118577zM16.2055336 16.2687747c-.93866578 0-1.69960475.76093897-1.69960475 1.69960475s.76093897 1.69960474 1.69960475 1.69960474h.71146245c.93866578 0 1.69960474-.76093896 1.69960474-1.69960474s-.76093896-1.69960475-1.69960474-1.69960475h-.71146245z"/><path d="M30.0790514 34.687747c-3.7546631 0-6.798419-3.0437558-6.798419-6.7984189 0-3.7546632 3.0437559-6.79841901 6.798419-6.79841901s6.798419 3.04375581 6.798419 6.79841901c0 3.7546631-3.0437559 6.7984189-6.798419 6.7984189zm1.1857707-6.2450593c1.4844017 0 2.6877471-1.2033453 2.6877471-2.687747 0-1.4844017-1.2033454-2.687747-2.6877471-2.687747-1.4844017 0-2.687747 1.2033453-2.687747 2.687747 0 1.4844017 1.2033453 2.687747 2.687747 2.687747z"/></g></g></g><g id="goo"><g fill="none" fill-rule="evenodd"><circle fill="#CE2E2D" cx="30" cy="30" r="30"/><g fill="#FFF"><path d="M17.8 31.9c1.2 0 2.4 0 3.5.4 1.4.5 2.5 1.4 2.5 3 0 2.7-3.3 3.4-5.4 3.4-2.1 0-5.4-.6-5.4-3.3 0-1.3.9-2.1 2-2.5-1-.3-1.8-.9-1.8-2s.8-1.8 1.8-2.1c-.4-.5-.6-1.2-.6-1.8 0-2.2 2-3.4 4.1-3.4.4 0 .9 0 1.3.2-.1-1.4 1.2-2.2 2.4-2.2 1.1 0 2.4.6 2.4 1.9 0 .6-.5 1.2-1.2 1.2-.5 0-.8-.3-.8-.8 0-.3.2-.5.5-.7-.2-.3-.5-.5-.9-.5-.8 0-1.2.7-1.2 1.5 1.1.6 1.7 1.8 1.7 3 0 2.3-2 3.6-4 3.6-.9 0-1.7-.2-2.4-.6-.3-.2-.6-.3-.7-.3-.5 0-.8.5-.8.9 0 1 1.5 1.1 2.2 1.1h.8zM21 27c0-1.3-1.2-2.2-2.5-2.2s-2.4.9-2.4 2.2c0 1.4 1.1 2.2 2.4 2.2 1.3 0 2.5-.8 2.5-2.2zm-5.1 6.8c-.6.3-1.1.8-1.1 1.5 0 .8.7 1.4 1.4 1.6.7.2 1.6.3 2.3.3 1.2 0 3.7-.3 3.7-2s-2.4-1.9-3.6-1.9c-.9.1-2 .2-2.7.5zM29.9 23.4c1.5 0 2.9.4 3.9 1.6.9 1.2 1.3 2.7 1.3 4.2 0 3.2-1.8 5.9-5.2 5.9-3.4 0-5-2.7-5-5.8 0-3.2 1.6-5.9 5-5.9zm0 10.2c2.6 0 3.5-2.3 3.5-4.5 0-1-.2-2.2-.8-3-.6-.9-1.5-1.2-2.6-1.2-1.2 0-2.1.4-2.7 1.4-.5.8-.7 2-.7 2.9 0 2.1.8 4.4 3.3 4.4zM41.8 23.4c1.5 0 2.9.4 3.9 1.6.9 1.2 1.3 2.7 1.3 4.2 0 3.2-1.8 5.9-5.2 5.9-3.4 0-5-2.7-5-5.8-.1-3.2 1.6-5.9 5-5.9zm0 10.2c2.6 0 3.5-2.3 3.5-4.5 0-1-.2-2.2-.8-3-.6-.9-1.5-1.2-2.6-1.2-1.2 0-2.1.4-2.7 1.4-.5.8-.7 2-.7 2.9 0 2.1.8 4.4 3.3 4.4z"/><path d="M29.5 30.1c-.6 0-1.2.6-1.2 1.2 0 .7.6 1.2 1.2 1.2.7 0 1.2-.5 1.2-1.2 0-.6-.6-1.2-1.2-1.2zM41.1 30.1c-.7 0-1.2.6-1.2 1.2 0 .7.5 1.2 1.2 1.2.6 0 1.2-.5 1.2-1.2 0-.6-.5-1.2-1.2-1.2z"/></g></g></g><g id="hi5"><g fill="none" fill-rule="evenodd"><circle fill-opacity=".87" fill="#000" cx="30" cy="30" r="30"/><path d="M46.7269728 28.10124514c.9574319 1.18337743 1.3206537 2.73417898 1.1945836 4.25892606-.1469416 1.7834708-.9633152 3.531502-2.2799066 4.6152841-1.2709261 1.0463813-3.0465525 1.719035-5.2835953 1.719035-1.6195798 0-3.3020545-.3310039-4.7220234-1.1358911v.7435331H12.60457587v-5.6692296h1.12440467v-4.89417896h-1.12440467V22.0168249h8.65036576v4.07878599c1.44294167-.53733852 3.36298837-.48536964 4.60645917.49419456v-.66074708h2.1179766v-3.02315954h6.5322491v2.33089494l.5953307-3.21996887h11.89807c-.0928716 2.0280467-.1851828 4.05637354-.2780544 6.08442024" fill="#C8C6C1"/><path d="M46.1264591 27.14045136c.957432 1.18351751 1.3205137 2.73445915 1.1944436 4.25934634-.1469416 1.7827704-.9633152 3.5315019-2.2797665 4.6151439-1.2710662 1.0462413-3.0465525 1.7186148-5.2837354 1.7186148-1.6195798 0-3.3019144-.3311439-4.7214631-1.1356109v.7436732H12.00406226v-5.6696498h1.12440467v-4.89403894h-1.12440467v-5.72189883h8.65036576v4.07864591c1.44280158-.53733852 3.36312838-.48522957 4.60645918.49433463v-.660607h2.1179766v-3.02329961h6.5326693V24.276l.5947704-3.21996887h11.8982101c-.0928716 2.02804669-.1851829 4.05637354-.2780545 6.08442023" fill="#343B39"/><path d="M26.7621012 26.46961868h5.6479377V33.173463h1.1242646v2.6666615h-6.7461479V33.173463h1.0984903v-3.97470814h-1.1245447v-2.72913618zm-4.1858055-.16207004c2.3666148 0 2.7218522 2.0507393 2.7218522 2.86473152V33.173463h1.1990661v2.6666615h-6.19592217V33.173463h.59252918v-3.25722954c0-1.53553307-1.740607-.99287159-1.740607 1.54169654v1.715533h.5229105v2.6666615h-6.17084825V33.173463h1.12440467v-7.89674705h-1.12440467v-2.71947081h5.64793775v5.76476264c.74367315-1.19822568 1.75223346-2.01445914 3.42308169-2.01445914zm6.3037821-.48172763h3.5299611v-2.37950194h-3.5299611v2.37950194z" fill="#FFFFFE"/><path d="M41.3856654 26.64387549c2.5216809 0 4.5568716 1.27162646 4.4382257 4.59441241 0 2.5632841-2.0971051 4.9941946-6.0664903 4.9941946-2.5875175 0-4.7340701-.9631751-5.5065992-2.3883269-.7980234-1.4717976-.1720156-3.74301941 1.7717042-3.74652136 1.2679845-.0025214 2.0682491.56199222 1.8002802 2.01011676-.336607.9752218.3029883 1.2979611.9219922 1.2979611.9369806 0 1.6495564-1.0788794 1.6978833-2.1805915.0458054-1.035035-.3801712-2.04149414-1.3345214-2.05256029-.3867549-.00434241-.8469105.14133852-1.2853541.67671595l-3.3363735-.4496498 1.2643424-6.84238132h9.0868482l-.1634708 3.58221011h-5.9972918l-.1376965 1.14723736c.8627393-.38241245 1.8958132-.64281712 2.8465214-.64281712" fill="#E98C38"/></g></g><g id="kakao"><g fill-rule="nonzero" fill="none"><path d="M28.486325 59.9692983c-6.6364044-.569063-11.5630204-2.3269562-16.3219736-5.8239328C4.44376336 48.4721167 0 39.6467923 0 29.9869344 0 15.1115596 10.506778 2.79838844 25.2744118.36718043 31.302519-.62523147 37.978265.41644488 43.5623517 3.2208101 57.138627 10.0389054 63.3436513 25.7618627 58.2050226 40.3239688c-3.5279559 9.9977054-12.7897094 17.6177847-23.3910729 19.2449379-2.0856252.3201125-5.0651487.5086455-6.3276247.4003916z" fill="#FFE812"/><path d="M30.5 14C19.730375 14 11 20.69445394 11 28.952339c0 5.3388968 3.649875 10.0235376 9.14025 12.6688251-.2986875 1.0018068-1.9194375 6.4448229-1.9839375 6.8724233 0 0-.0388125.3212929.175125.4438292.2139375.1225362.4655625.0273518.4655625.0273518.6135-.0833319 7.1143125-4.5241766 8.2395-5.2953162 1.1240625.1548115 2.2815.2352259 3.4635.2352259 10.769625 0 19.5-6.6942716 19.5-14.9523391C50 20.69445394 41.269625 14 30.5 14z" fill="#000"/><path d="M20.11212489 33c-.64033041 0-1.16107056-.4353882-1.16107056-.9707294v-6.0386824h-1.81165709C16.51106456 25.9905882 16 25.5440188 16 24.9952941S16.51125807 24 17.13939724 24h5.94545526c.6283327 0 1.1393973.4465694 1.1393973.9952941s-.5112581.9952941-1.1393973.9952941h-1.8116571v6.0386824c0 .5353412-.5207401.9707294-1.16107051.9707294zm10.18104071-.0132141c-.4841664 0-.8545479-.1721224-.9662042-.4489412l-.5749235-1.3176847-3.5404911-.0001694-.5753105 1.3185318c-.1112692.2763105-.4814572.4482635-.9656237.4482635-.2546749.0002283-.5064123-.0476164-.7380538-.140273-.3200685-.1292611-.6277522-.484687-.2751737-1.4433882l2.7772807-6.3996988c.1956404-.48672.789915-.9881788 1.546159-1.0032565.7583726.0149082 1.3526472.5165365 1.5486746 1.004273l2.7761197 6.3968188c.3533525.9609035.0456688 1.3164988-.2743997 1.4454212-.2316966.0924919-.4834067.1402736-.7380538.1401035-.0001935 0 0 0 0 0zm-2.1516573-3.5671341l-1.1597159-2.8842353-1.159716 2.8842353h2.3194319zm5.0326604 3.4321129c-.6136258 0-1.1126927-.4181082-1.1126927-.9317647v-6.9035294c0-.5605835.5317704-1.0164706 1.1852596-1.0164706s1.1852595.4558871 1.1852595 1.0164706v5.9717647H36.89927c.6136258 0 1.1126926.4181082 1.1126926.9317647s-.4990668.9317647-1.1126926.9317647h-3.7251013zm6.4505209.1350212c-.6403304 0-1.1610705-.4558871-1.1610705-1.0164706v-6.9538447c0-.5605835.5207401-1.0164706 1.1610705-1.0164706.6403305 0 1.1610706.4558871 1.1610706 1.0164706v2.1847341l3.2393869-2.8359529c.1666136-.1458636.395538-.2261647.6440071-.2261647.2898806 0 .5809223.10944.7990101.3001976.2033808.1778824.3247127.4067577.3413547.6444424.0168355.2397176-.0743085.4594447-.2562096.6188611l-2.6458863 2.3160283 2.8579752 3.3147106c.1863887.2147949.2666819.4860225.2229256.7530353-.0418059.2671791-.2040382.5085898-.4504954.6703623-.2007827.1336077-.4461848.2056972-.698384.2051577-.3648049.0014863-.7088533-.1483913-.9275018-.4040471l-2.722904-3.1585129-.4028915.3527152v2.2177695c-.0007462.5613249-.5202804 1.016232-1.1614576 1.0169788z" fill="#FFE812"/></g></g><g id="linkedin"><g fill="none" fill-rule="evenodd"><path d="M28.4863253 59.9692983c-6.6364044-.569063-11.5630204-2.3269561-16.3219736-5.8239327C4.44376366 48.4721168 3e-7 39.6467924 3e-7 29.9869344c0-14.8753747 10.506778-27.18854591 25.2744118-29.61975392 6.0281072-.9924119 12.7038532.04926445 18.2879399 2.85362966C57.1386273 10.0389054 63.3436516 25.7618627 58.2050229 40.3239688 54.677067 50.3216743 45.4153135 57.9417536 34.81395 59.5689067c-2.0856252.3201125-5.0651487.5086456-6.3276247.4003916z" fill="#0077B5" fill-rule="nonzero"/><g fill="#FFF"><path d="M17.88024691 22.0816337c2.14182716 0 3.87817284-1.58346229 3.87817284-3.53891365C21.75841975 16.58553851 20.02207407 15 17.88024691 15 15.73634568 15 14 16.58553851 14 18.54272005c0 1.95545136 1.73634568 3.53891365 3.88024691 3.53891365M14.88888889 44.8468474h6.95851852V24.77777778h-6.95851852zM31.6137778 33.6848316c0-2.3014877 1.0888889-4.552108 3.6925432-4.552108 2.6036543 0 3.2438518 2.2506203 3.2438518 4.4970883v10.960701h6.9274074V33.1816948c0-7.9263084-4.6853333-9.29280591-7.5676049-9.29280591-2.8798518 0-4.4682469.9740923-6.2961975 3.33440621v-2.70185178h-6.9471111V44.5905129h6.9471111V33.6848316z"/></g></g></g><g id="livejournal"><circle fill="#3498DB" fill-rule="nonzero" cx="30" cy="30" r="30"/><path d="M33.2546484,59.8255078 C32.1855469,59.9408203 31.0996875,60 30,60 C13.4314453,60 0,46.5685547 0,30 C0,28.5435937 0.103828125,27.1114453 0.304335937,25.7104687 L21.8777344,15.0938672 L25.4296875,17.8125 L38.203125,27.890625 L43.4845312,36.6371484 L33.2546484,59.8255078 Z" fill="#000000" opacity="0.3"/><path d="M30.6685547,45 C22.8829688,45 16.5714844,38.6898047 16.5714844,30.9057422 C16.5714844,28.7851172 17.0428125,26.7755859 17.881875,24.9716016 L29.2787109,35.9677734 C29.2787109,35.9677734 32.0103516,31.1544141 36.4265625,28.9205859 L25.4104688,17.8286719 C27.0357422,17.1747656 28.8092578,16.8113672 30.6685547,16.8113672 C38.4541406,16.8113672 44.765625,23.1216797 44.765625,30.9057422 C44.765625,38.6898047 38.4541406,45 30.6685547,45 Z M38.2051172,37.2677344 C37.8885937,35.9151562 37.32,33.4863281 37.32,33.4863281 C37.32,33.4863281 35.0398828,34.8769922 33.9446484,36.8610937 L37.5769922,37.9101562 C37.5769922,37.9101562 38.4492188,38.3102344 38.2051172,37.2677344 Z M17.881875,24.9716016 L15.4638281,22.6385156 C15.4638281,22.6385156 15.1267969,22.1342578 15.2711719,21.8080078 C16.8171094,18.3124219 20.6035547,15.8741016 21.9465234,15.0941016 C22.3694531,14.8484766 22.7607422,15.1605469 22.7607422,15.1605469 L25.4104688,17.8286719 C22.0842188,19.1669531 19.3871484,21.7348828 17.881875,24.9716016 Z" fill="#FFFFFF"/></g><g id="mail"><g fill-rule="nonzero" fill="none"><path d="M28.4863253 59.9692983c-6.6364044-.569063-11.5630204-2.3269561-16.3219736-5.8239327C4.44376366 48.4721168 3e-7 39.6467924 3e-7 29.9869344c0-14.8753747 10.506778-27.18854591 25.2744118-29.61975392 6.0281072-.9924119 12.7038532.04926445 18.2879399 2.85362966C57.1386273 10.0389054 63.3436516 25.7618627 58.2050229 40.3239688 54.677067 50.3216743 45.4153135 57.9417536 34.81395 59.5689067c-2.0856252.3201125-5.0651487.5086456-6.3276247.4003916z" fill="#888"/><path d="M40.531502 19.160814h-22c-1.74 0-2.986 1.2375-3 3v16c0 1.7625 1.26 3 3 3h22c1.74 0 3-1.2375 3-3v-16c0-1.7625-1.26-3-3-3zm0 6l-11 7-11-7v-3l11 7 11-7v3z" fill="#FFF"/></g></g><g id="meneame"><g fill="none" fill-rule="evenodd"><circle fill="#E35615" cx="30" cy="30" r="30"/><path d="M22.0296292 16.5908518c1.5360178-1.2704239 3.3553358-1.8901429 5.294171-2.2309884 3.0366232-.5400409 5.9094634.0531188 8.6893459 1.2571443 1.4253537.619719 2.8064418 1.3456756 4.2804877 1.859157.3231392.1150907.6551315.2169017.995977.2611673.619719.0885313 1.1243474-.1239438 1.5315913-.5798799.5311877-.6020128.7171034-1.3235428.7171034-2.1070447.1505032-.0088531.1814892.1062376.2301814.1947689.4515095.8321941.3231392 2.1911493-.2921533 2.8949731-.6462784.7392362-1.5006053.8720332-2.408051.7657956-1.0358161-.1195172-2.0185134-.4205236-2.956945-.8720332-1.7706258-.8454738-3.5678109-1.6245491-5.4933664-2.0583524-2.4124776-.5444674-4.8028224-.4515096-7.1400484.3275658-3.404028 1.1287739-5.1967865 4.5150956-4.267208 7.9899487.5356143 2.0052336 1.6643882 3.5810905 3.4217342 4.6965848.7613691.4824955 1.6024164.6329987 2.4877292.6241455.8985926-.0132796 1.7706258-.1859157 2.6470855-.3541251.1505032-.0265594.3010064-.0663985.5356143.0044266-.7657956.4736424-1.5271647.7436628-2.3327994.9118722-1.1818927.2478876-2.3637854.2478876-3.5456781.0221328-1.0181098-.1947688-1.8547305-.7436628-2.5275682-1.5094584-1.3368225-1.5183116-2.2973869-3.2358186-2.5851136-5.2720382-.3983908-2.7975887.5798799-5.0551365 2.7179105-6.8257623zm9.5525259 29.7730721c-1.5758569.1283703-3.1561404.1991954-4.7364239.2213282-2.2265618.0354125-4.4619769.0486922-6.6575528-.3187127-3.5678109-.6020127-6.329987-2.377065-7.6756626-5.882904-.72153-1.8812899-.6285722-3.8378313-.0486922-5.7501071.8676066-2.8639872 2.1822962-5.4933664 4.3247534-7.6446767.5533205-.5577471 1.1774661-1.0358161 1.788332-1.5271647.0619719-.0486922.1150907-.1239438.2390345-.0841048-.0265594.1814892-.132797.3187127-.2301814.4603627-1.6643882 2.3726385-3.0853154 4.8736474-4.1609705 7.5738517-.7480894 1.8812898-.9295785 3.7979922-.4338033 5.7633868.6108659 2.4301839 2.2309884 3.9307892 4.5106691 4.8116755 1.6511085.6418518 3.3774686.9472848 5.1259615 1.1509067 2.4301839.2877267 4.8736474.4824955 7.3082578.7171035.2346079.0221328.4692158.0885312.6949706.1505031.1106641.0265594.2523142.0752516.2346079.2213283-.0132796.1770625-.172636.1239438-.2833001.1372235zm1.199599-.1283704c-.0752516.1062375-.1593563.2346079-.3142861.1814891-.1372235-.0486922-.1195172-.1947688-.1239438-.3098595-.0354125-.8233409.0973844-1.6378288.1770626-2.4523166.1062375-1.168613.3054329-2.337226.1947688-3.5191187-.0354125-.376258-.203622-.6020128-.5400408-.7613691-.9826973-.4692158-2.0406462-.6241456-3.1074482-.7303831-1.3058365-.1283704-2.6160996-.1150907-3.9219361-.1903423-.0841047-.0044265-.1637829-.0221328-.243461-.0354125 2.5231417-.4116705 5.0418568-.6418518 7.5782782-.3364189 1.2084521.1460766 1.4386334.3939642 1.4651928 1.6112694.0486922 1.9299821-.2213282 3.8201251-.7702222 5.670429-.0885313.305433-.203622.6108659-.3939642.8720332zm13.0937774-24.0805102c-.9118723.8676066-2.0273665 1.4032209-3.129581 1.9653946-.995977.5046283-2.0229399.9517113-2.9613716 1.5670037-1.0225364.6684113-1.8680101 1.4828991-2.1513103 2.7311903-.2301813 1.0136832-.0442656 2.0140868.1593563 3.0056372.4470831 2.1778697 1.3323959 4.2096627 2.2044291 6.2414558.4515096 1.0490957.9295785 2.0849118 1.2881302 3.1694201.57988 1.7484929.0973845 3.0941685-1.4607662 4.0768657-1.1199208.7038238-2.3726385 1.0136833-3.6607687 1.2217318-.752516.1195173-1.5138851.1549298-2.2929604.2080485-.1637829-.0531187-.4692158.1283704-.517908-.1018109-.0486922-.2257548.2700204-.2965799.4559361-.376258 1.1287739-.4692158 2.266401-.9162988 3.3996014-1.3855147.7038238-.2921532 1.3899413-.6241455 2.02294-1.0535223.2169016-.1505032.416097-.3187126.5931596-.5134815.2788736-.314286.345272-.6418518.1814891-1.0490957-.8543269-2.1468837-1.8148914-4.2583549-2.5674073-6.4539309-.6064393-1.7706257-1.0889348-3.5633843-1.2173052-5.4491007-.1505032-2.2177088.619719-3.9440689 2.5319948-5.1348147.9030192-.5621737 1.8724368-.9782707 2.8462809-1.3987944 1.199599-.517908 2.3903448-1.0490957 3.4438671-1.8547304 1.5758569-1.2040255 2.093765-2.815295 1.9565415-4.7142911-.0619719-.8543269-.203622-1.6953741-.3983908-2.5319948-.0221329-.0929579-.1505032-.2346079.0177062-.305433.1549298-.0663984.2346079.0531188.3010064.1726361.5134815.934005.9118723 1.8989961 1.0402426 2.9702247.2434611 2.062779-.6595581 3.6342093-2.0849118 4.9931646z" fill="#FFF" fill-rule="nonzero"/></g></g><g id="mixi"><g fill="none" fill-rule="evenodd"><circle fill="#CAA75A" cx="30" cy="30" r="30"/><path d="M46 27.09895599c0-1.37949292-.2084691-2.652871-.6254072-3.92624908-.6254071-1.80395227-1.7719869-3.07733035-3.5439739-3.71401939-.9381108-.31834452-1.8762215-.42445936-2.9185668-.42445936-2.3973941.10611484-4.4820847.95503356-6.2540716 2.652871-.4169382.31834452-.7296417.74280388-1.0423453 1.16726324-.1042345.21222968-.3127036.53057419-.3127036.53057419s-.2084691-.42445935-.3127036-.53057419c-.1042345-.21222968-.208469-.42445936-.3127036-.63668904-1.0423452-1.69783744-2.5016286-2.75898584-4.3778501-3.07733036-2.39739417-.42445936-4.48208472.10611484-6.35830622 1.69783744-.62540717.5305742-1.14657981 1.27337808-1.77198697 1.91006712-.10423453.10611484-.41693811.74280387-.41693811.74280387v-4.0323639H14V40.8938852h3.752443V30.0701715c0-1.27337808.10423452-2.54675615.62540716-3.71401939.52117264-1.27337808 1.25081434-2.22841164 2.29315961-2.97121552 1.56351792-.95503355 3.12703583-1.27337807 4.89902283-.74280387.9381107.31834452 1.6677524.84891871 2.0846905 1.80395227.3127036.74280388.5211727 1.48560776.6254072 2.22841164V41h3.752443V28.4784489c.1042345-.84891871.3127036-1.59172259.6254072-2.44064131.5211726-1.16726324 1.3550488-2.22841164 2.3973941-2.97121551 1.2508143-.84891872 2.7100977-.95503356 4.1693811-.74280388.9381107.10611484 1.6677524.63668904 2.1889251 1.48560775.5211726.63668904.7296417 1.48560776.8338762 2.22841164V40.7877703H46V27.09895599s0 .10611484 0 0z" fill="#FFF"/></g></g><g id="myspace"><g fill="none" fill-rule="evenodd"><circle fill="#000" cx="30" cy="30" r="30"/><g fill="#FFF"><path d="M22.30890433 29.00246849v-3.95942196c0-.77613479.05733334-1.34405458.17133334-1.70409303.11433333-.35970478.30066666-.6326533.55933333-.81884557.25833333-.18652594.534-.27962208.82733333-.27962208.40266667 0 .616.1554939.80966667.46581435 0 1.58096589.04666667 6.29616829.04666667 6.29616829h1.92500003v-5.27110978c0-1.3921042-.2036667-2.23263883-1.1183334-2.79121563-.4023333-.24592061-.4703333-.36871408-1.05166663-.36871408-.45733334 0-.88733334.108779-1.28966667.3260033-.40266667.217558-.77766667.54623073-1.12566667.9860182-.23833333-.43978747-.544-.7684602-.91666666-.9860182-.373-.2172243-.81266667-.3260033-1.31966667-.3260033-.954 0-1.77666667.43745173-2.46733333 1.3120215v-1.12582923H15.428571v8.24484722h2.09466667v-4.00613686c0-.79148398.056-1.35840273.16766666-1.7000889.11166667-.34135249.297-.60295597.55533334-.78380939.25833333-.1811871.549-.27194749.87233333-.27194749.26833333 0 .48066667.05705892.63733333.17084309.15633334.11411784.52633334.28729667.601.52020384.07433334.23290718.112.75077528.112 1.55260327v4.51833244h1.84zM29.5693805 30.11528428c-.2426666 0-.7493333-.03270043-1.0513333-.09776762l.0153333 1.74013024c.357.0850879.9553334.0423771 1.326.0423771.366 0 .8506667-.0427108 1.1413334-.1277986.2906666-.0854216.5356666-.2045446.7346666-.3573691.199-.1531581.3753334-.3523638.5286667-.5979508.1533333-.2455869.3146667-.60162122.484-1.06776924l.46-1.39143684 2.5743333-7.68627042h-1.9976666l-1.7026667 5.6708559-1.7436667-5.6708559h-2.0526666l2.7733333 8.0096043c-.1143333.44612735-.279.81350672-.4943333 1.10180442-.215.28829771-.5466667.43244656-.9953334.43244656M43.5402377 34.2900525v2.8135721H17.306571l-.00433333-2.8179099H15.448571l-.02 4.6801662h30l-.0143333-4.6758284z"/></g></g></g><g id="naver"><g fill="none" fill-rule="evenodd"><path d="M28.486325 59.9692983c-6.6364044-.569063-11.5630204-2.3269562-16.3219736-5.8239328C4.44376336 48.4721167 0 39.6467923 0 29.9869344 0 15.1115596 10.506778 2.79838844 25.2744118.36718043 31.302519-.62523147 37.978265.41644488 43.5623517 3.2208101 57.138627 10.0389054 63.3436513 25.7618627 58.2050226 40.3239688c-3.5279559 9.9977054-12.7897094 17.6177847-23.3910729 19.2449379-2.0856252.3201125-5.0651487.5086455-6.3276247.4003916z" fill="#00CD00" fill-rule="nonzero"/><path fill="#FFF" fill-rule="nonzero" d="M33.5025 19v11.5l-7.82-11.5H17v23h8.6825V30.5l7.82 11.5H42.185V19z"/></g></g><g id="odnoklassniki"><g fill="none" fill-rule="evenodd"><circle fill="#F7931F" cx="30" cy="30" r="30"/><path d="M30.02666667 16.01333333c3.71666663.01 6.70333333 3.05 6.68333333 6.81333334C36.69 26.5 33.6566667 29.4766667 29.94333333 29.4633333c-3.67666666-.0133333-6.69-3.06-6.66666666-6.73999997.02333333-3.72333333 3.04-6.72 6.75-6.71zm-.01 10.01666667C31.84 26.0233333 33.2933333 24.56 33.2866667 22.73333333 33.28 20.90666667 31.82333333 19.45 30 19.45c-1.84-.00333333-3.31 1.48-3.29333333 3.32333333.01333333 1.82 1.48333333 3.26333337 3.31 3.25666667zM37.56 32.1066667C36.7366667 32.95 35.7466667 33.5633333 34.65 33.99c-1.04.4033333-2.1766667.6066667-3.30666667.74.17.1866667.25.2766667.35666667.3833333 1.53 1.5366667 3.0666667 3.07 4.5933333 4.61.52.5266667.63 1.1766667.3433334 1.7866667-.3133334.67-1.0133334 1.1066667-1.7 1.06-.4366667-.03-.7733334-.2466667-1.0766667-.55-1.1566667-1.1633333-2.33333333-2.3033333-3.46333333-3.4866667-.33-.3433333-.48666667-.28-.78.02-1.16333334 1.1966667-2.34 2.3733334-3.53 3.5433334-.53333334.5266666-1.16666667.62-1.78666667.32-.65666667-.32-1.07666667-.99-1.04333333-1.6633334.02333333-.4566666.24666666-.8033333.56-1.1166666C25.33 38.1233333 26.84 36.61 28.35333333 35.0933333c.1-.1.19333334-.2066666.34-.3633333-2.06-.2166667-3.91666666-.7233333-5.50666666-1.9666667-.19666667-.1533333-.4-.3033333-.58333334-.4766666-.69666666-.67-.76666666-1.4333334-.21333333-2.2233334.47-.6733333 1.26333333-.8566666 2.08333333-.47.16.0733334.31.17.45666667.27 2.96333333 2.0366667 7.03666667 2.0933334 10.01.0933334.2933333-.2233334.61-.41.9766667-.5033334.71-.1833333 1.37.0766667 1.7533333.7.4333333.71.4266667 1.4-.11 1.9533334z" fill="#FFF" fill-rule="nonzero"/></g></g><g id="pinterest"><g fill="none" fill-rule="evenodd"><path d="M28.4863253 59.9692983c-6.6364044-.569063-11.5630204-2.3269561-16.3219736-5.8239327C4.44376366 48.4721168 3e-7 39.6467924 3e-7 29.9869344c0-14.8753747 10.506778-27.18854591 25.2744118-29.61975392 6.0281072-.9924119 12.7038532.04926445 18.2879399 2.85362966C57.1386273 10.0389054 63.3436516 25.7618627 58.2050229 40.3239688 54.677067 50.3216743 45.4153135 57.9417536 34.81395 59.5689067c-2.0856252.3201125-5.0651487.5086456-6.3276247.4003916z" fill="#BD081C" fill-rule="nonzero"/><path d="M30 14c-8.8359111 0-16 7.1714944-16 16.0165392 0 6.5927634 3.9804444 12.254788 9.6650667 14.7135047-.0408889-1.1165307-.0010667-2.448039.2812444-3.6553302.3104-1.3030344 2.0682667-8.7589113 2.0682667-8.7589113s-.5134222-1.02755-.5134222-2.5444942c0-2.3797018 1.3806222-4.160741 3.0965333-4.160741 1.4609778 0 2.1671111 1.1005142 2.1671111 2.41565 0 1.4692506-.9365333 3.6667197-1.4200889 5.7022439-.4003555 1.7048716.8576 3.0968868 2.5372445 3.0968868 3.04 0 5.0876444-3.9112388 5.0876444-8.547849 0-3.5211471-2.3669333-6.159605-6.6794667-6.159605-4.8693333 0-7.9072 3.6364662-7.9072 7.6993283 0 1.3998456.4138667 2.3889558 1.0613334 3.1524109.2968889.3512961.3370666.4929535.2286222.897638-.0782222.2939925-.2510222 1.0058387-.3253333 1.2902212-.1063112.4068201-.4373334.5495453-.8046223.4000576-2.2421333-.9150783-3.2888889-3.3748628-3.2888889-6.1393174 0-4.5672052 3.8474667-10.042726 11.4766223-10.042726 6.1326222 0 10.1667555 4.4422761 10.1667555 9.2070185 0 6.3090928-3.5029333 11.0179553-8.6641778 11.0179553-1.7340444 0-3.3660444-.9385692-3.9217777-2.0020674 0 0-.9354667 3.7001765-1.1306667 4.4177174-.3370667 1.2211722-.9863111 2.4412765-1.5879111 3.4019129 1.3984.4000576 2.8768.6150352 4.4071111.6150352 8.8359111 0 16-7.1714944 16-16.0165392S38.8359111 14 30 14" fill="#FFF"/></g></g><g id="rakuten"><g fill="none" fill-rule="evenodd"><circle fill="#FFF" cx="30" cy="30" r="30"/><path d="M30 1c15.991 0 29 13.009 29 29S45.991 59 30 59 1 45.991 1 30 14.009 1 30 1zm0-1C13.431 0 0 13.431 0 30c0 16.569 13.431 30 30 30 16.569 0 30-13.431 30-30C60 13.431 46.569 0 30 0z" fill="#E7E7E7" fill-rule="nonzero"/><g fill="#BF0000"><path d="M19.62 49.081l-4.974-4.174h34.882z"/><path d="M25.285 41.776H19.62V11.962h9.363c5.672 0 10.284 4.607 10.284 10.279 0 3.454-1.716 6.503-4.328 8.378l8.382 11.157h-7.092l-6.937-9.246h-4.007v9.246zm0-24.153v9.242h3.697a4.629 4.629 0 0 0 4.624-4.624 4.628 4.628 0 0 0-4.624-4.618h-3.697z" fill-rule="nonzero"/></g></g></g><g id="reddit"><g fill-rule="nonzero" fill="none"><path d="M28.4863253 59.9692983c-6.6364044-.569063-11.5630204-2.3269561-16.3219736-5.8239327C4.44376366 48.4721168 3e-7 39.6467924 3e-7 29.9869344c0-14.8753747 10.506778-27.18854591 25.2744118-29.61975392 6.0281072-.9924119 12.7038532.04926445 18.2879399 2.85362966C57.1386273 10.0389054 63.3436516 25.7618627 58.2050229 40.3239688 54.677067 50.3216743 45.4153135 57.9417536 34.81395 59.5689067c-2.0856252.3201125-5.0651487.5086456-6.3276247.4003916z" fill="#FF4500"/><path d="M34.1335847 43.9991814c1.6336774-.3831682 2.81654-.7939438 3.9781753-1.3815065 3.6153903-1.8286959 5.8788354-4.8645264 5.8788354-7.8849481 0-.9131088.0196207-.9556355.780668-1.6923265.6040409-.5847092.8404012-.962515 1.044679-1.6698428.2433185-.8425206.2441028-.9826228.0100139-1.7878614-.6566532-2.2588075-3.0054252-3.2764371-5.1075029-2.212882l-.8124519.4110627-.837264-.5151716c-1.6101652-.9907471-4.473974-1.96108051-6.3205111-2.14155924-.5059537-.04945042-1.143803-.1235464-1.4174535-.16465815l-.4975382-.07474783.2136595-1.06953332c.1175125-.5882423.3623778-1.7491883.5441475-2.57987956.181767-.83069153.4095191-1.95749071.5061138-2.50399817.1396137-.78991765.2348596-.99365031.4645331-.99365031.1589005 0 1.2955101.21462853 2.5257988.4769522 1.2302915.26232367 2.2622022.47695193 2.293134.47695193.0309345 0 .1003234.23497925.154203.52217616.1363137.72661143.4902897 1.17780487 1.2134714 1.54674469 1.7356128.8854428 3.6891485-.29431302 3.6891485-2.22790474 0-2.3956262-2.9538443-3.44186625-4.4550019-1.57794377-.2901205.36022881-.4356746.42625561-.7154284.32453216-.1931649-.07023833-1.5202546-.3669593-2.9490951-.65938053-1.8923676-.38728585-2.6686067-.48706487-2.8582979-.36740978-.2896185.1826864-.2522224.047706-1.0501419 3.79055007-.9490696 4.45187338-1.0064011 4.70400786-1.0882029 4.78580828-.0432388.04324046-.729551.14596475-1.5251367.22827402-2.413687.24971784-5.06621906 1.10194849-6.8544721 2.20227189l-.8268564.5087695-.81204644-.4046587c-2.11972653-1.0563058-4.47243958-.0382468-5.1287215 2.2192841-.23408885.8052386-.23330375.9453408.0100166 1.7878614.20427624.7073278.44063816 1.0851336 1.04467744 1.6698428.76105187.736691.78066878.7792177.78066878 1.6923265 0 4.172347 4.28816886 8.1540991 10.01599352 9.3002929 1.8975637.3797217 2.0263168.3894072 4.4515526.3349143 1.5849893-.0356103 2.7274992-.1508298 3.6566327-.3687526zm-6.6864685-3.0300366c-1.3154638-.2961613-2.8032079-.9569232-3.2391341-1.4386156-.34760429-.384099-.198986-.9659493.246724-.9659493.1736296 0 .5801788.1805458.9034441.4012095 2.1828306 1.4900284 7.1085991 1.484628 9.2987021-.0101767.7054363-.4814861 1.2827246-.468194 1.3538857.0311679.0334854.234998-.1164569.4687666-.4771278.7438635-1.7511846 1.3356924-5.2646974 1.8738181-8.086494 1.2385197v-.000019zm-4.01196195-5.9075609c-.81902983-.4443886-1.22403999-1.1532958-1.22477787-2.143771-.000787-1.135302.52653614-1.8699603 1.59778946-2.2257735.76240766-.253232.85344696-.2532238 1.51689516.0001492 1.785415.6818561 2.1507834 2.909296.6724678 4.0996229-.7705198.6204159-1.7299516.7214286-2.56237455.2697724zm11.09588945.0732995c-.7590038-.3947507-1.1832989-.8746601-1.3628596-1.5414995-.3321829-1.2336253.2931784-2.4377233 1.5067529-2.9011953.6634485-.253373.754488-.2533812 1.5168976-.0001492 1.0712525.3558132 1.5986343 1.0904715 1.5977903 2.2257735-.0008141 1.0085002-.4138259 1.7116813-1.2587076 2.1427072-.7599699.3877084-1.3548626.4098285-1.9998736.0743633z" fill="#FDFDFD"/></g></g><g id="skyblog"><g fill-rule="nonzero" fill="none"><path d="M28.486325 59.9692983c-6.6364044-.569063-11.5630204-2.3269562-16.3219736-5.8239328C4.44376336 48.4721167 0 39.6467923 0 29.9869344 0 15.1115596 10.506778 2.79838844 25.2744118.36718043 31.302519-.62523147 37.978265.41644488 43.5623517 3.2208101 57.138627 10.0389054 63.3436513 25.7618627 58.2050226 40.3239688c-3.5279559 9.9977054-12.7897094 17.6177847-23.3910729 19.2449379-2.0856252.3201125-5.0651487.5086455-6.3276247.4003916z" fill-opacity=".87" fill="#000"/><g fill="#FFF"><path d="M29.8428571 25.7285714c-1.3071428 0-2.5928571 0-3.8785714-.0071428-.0785714 0-.2071428-.1071429-.2357143-.1857143-.6071428-1.9428572-1.7142857-2.8214286-3.76428569-2.9571429-.95714285-.0642857-1.90714285-.0357143-2.80714285.3357143-.91428572.3785714-1.47857143 1.2285714-1.47857143 2.2071429 0 .5714285.26428571 1 .68571428 1.35.59285715.4857143 1.29285715.7571428 2.01428572.9571428C22.23571429 27.9428571 24.1 28.4214286 25.95 28.9571429c.9142857.2642857 1.8071429.6 2.5857143 1.1714285 1.1642857.8571429 1.8142857 2.0428572 2.0071428 3.45.2285715 1.6928572-.0142857 3.3142857-.9214285 4.8071429-.6714286 1.1-1.6285715 1.8571428-2.8071429 2.3285714-2.6285714 1.0642857-5.33571427 1.0714286-8.07142856.5357143-1.40714285-.2785714-2.66428571-.8714286-3.69285714-1.8928571-1.23571429-1.2142858-1.83571429-2.7214286-2-4.4214286-.01428571-.1642857-.02857143-.3285714-.04285714-.5285714h4.35c.17857143.5142857.30714285 1.0428571.53571428 1.5142857.4.8285714 1.12857143 1.2857143 1.98571429 1.5714285 1.7.5642858 3.39285717.5571429 5.05714287-.1214285C26.1 36.8928571 26.6214286 35.4285714 26 34.3928571c-.35-.5785714-.9214286-.9071428-1.5214286-1.2-1.54285711-.7428571-3.22142854-1.0642857-4.85714283-1.5142857-1.06428571-.2928571-2.12857143-.6-3.16428571-.9785714-1.5-.5571429-2.41428572-1.6785714-2.84285715-3.2071429-.5-1.7785714-.41428571-3.5071428.42857143-5.1714285.72857143-1.4285715 1.93571429-2.3 3.42142857-2.79285717 2.22142858-.72857143 4.49285715-.79285714 6.77142859-.37142857C25.75 19.43571429 27.1 20.0714286 28.1714286 21.2357143c.9571428 1.0214286 1.7857143 3.1571428 1.6714285 4.4928571z"/><path d="M35.8428571 38.7571429c-.75-2.2785715-1.4857142-4.5642858-2.25-6.8357143-.1-.3-.0571428-.45.2-.6357143 1.8642858-1.3214286 3.7142858-2.6571429 5.5714286-3.9928572.1-.0714285.2-.1571428.3714286-.2857142h-7.7642857c-.0357143-.6071429-.0642857-1.1857143-.1142857-1.7642858-.2642858-3.2285714-1.7285715-5.68571424-4.6357143-7.21428567-.05-.02857143-.1-.05714286-.15-.09285714-.0071429-.00714286-.0142857-.01428572-.0571429-.06428572.85-2.57857143 1.7-5.17857143 2.5857143-7.87142857.3428571 1.05.6571429 2.00714286.9714286 2.97142857 1.1714285 3.59285714 2.3428571 7.18571433 3.5 10.78571433.0857143.2714285.2571428.25.4642857.25h14.4357143c-.1571429.1285714-.2428572.2-.3285715.2571428-3.7714285 2.7285714-7.5357142 5.4571429-11.3142857 8.1714286-.2428571.1785714-.2928571.3214286-.2.6142857 1.45 4.4071429 2.8857143 8.8142857 4.3214286 13.2214286.0357143.1071428.0642857.2214285.1357143.4285714C38.1571429 44.2214286 34.8071429 41.7928571 31.5 39.4c.3714286-.9714286.7357143-1.9142857 1.1071429-2.8857143 1.0428571.75 2.1214285 1.5214286 3.2 2.3 0-.0142857.0142857-.0357143.0357142-.0571428z"/></g></g></g><g id="skype"><g fill="none" fill-rule="evenodd"><path d="M28.486325 59.9692983c-6.6364044-.569063-11.5630204-2.3269562-16.3219736-5.8239328C4.44376336 48.4721167 0 39.6467923 0 29.9869344 0 15.1115596 10.506778 2.79838844 25.2744118.36718043 31.302519-.62523147 37.978265.41644488 43.5623517 3.2208101 57.138627 10.0389054 63.3436513 25.7618627 58.2050226 40.3239688c-3.5279559 9.9977054-12.7897094 17.6177847-23.3910729 19.2449379-2.0856252.3201125-5.0651487.5086455-6.3276247.4003916z" fill="#44A836" fill-rule="nonzero"/><circle fill="#00AFF0" cx="30" cy="30" r="30"/><path d="M36.2719048 35.4523242c-.5263334.7487732-1.2973334 1.3370473-2.3126667 1.7594835-1.0146667.4264404-2.2176667.6379922-3.609.6379922-1.6686667 0-3.044-.2896324-4.129-.8695646-.7673333-.4170974-1.3926667-.9753405-1.8736667-1.6717263-.4796666-.6957184-.72-1.3737519-.72-2.0327658 0-.3810601.1436667-.7083982.432-.9796783.288-.2739495.6556667-.4097564 1.101-.4097564.3613334 0 .668.1054422.917.318996.2506667.2125528.464.5258764.6396667.9439748.216.4948443.448.9092723.6986667 1.2409481.249.3326769.6016666.6076275 1.0536666.8228497.4543334.2145549 1.0506667.3236676 1.7883334.3236676 1.0143333 0 1.8393333-.2162233 2.4736666-.652674.6336667-.4334476.9523334-.9776762.9523334-1.6286818 0-.5158661-.172-.9363002-.5136667-1.2562973-.3426667-.3226665-.7846667-.5682535-1.3266667-.7377619-.542-.1705094-1.2663333-.3510291-2.1743333-.5415592-1.2146667-.2602687-2.2313333-.5682534-3.0493333-.9176142-.8183334-.3506955-1.469-.8275212-1.9486667-1.4321455-.481-.6059591-.7206667-1.3574017-.7206667-2.2546616 0-.8568849.2526667-1.6166694.7613334-2.2810221.507-.6653538 1.2403333-1.176882 2.2026666-1.534251.961-.3573691 2.0906667-.5352194 3.39-.5352194 1.0373334 0 1.9353334.119123 2.6923334.3546996.757.237245 1.3843333.5525706 1.8843333.9449758.5.3930726.866.8044975 1.0956667 1.2362767.231.4297771.3463333.8532144.3463333 1.2609687 0 .3747203-.1436667.7147381-.4323333 1.0143809-.2876667.3006438-.647.4521335-1.0773334.4521335-.3933333 0-.6913333-.0910941-.8946666-.2716138-.2036667-.1805197-.4253334-.475491-.6626667-.8859148-.308-.5866058-.6756667-1.0450792-1.108-1.3730846-.4306667-.3300074-1.1213333-.4938433-2.0753333-.4938433-.8826667 0-1.5963334.1768493-2.1383334.5352194-.5423333.356368-.8133333.7871462-.8133333 1.2893314 0 .3096531.0933333.5802659.2773333.8064995.183.2272346.4376667.4197668.7613334.5829353.3216666.1621674.6486666.2896324.979.3830622.3306666.0917614.8763333.2255663 1.639.4024155.952.2052119 1.8143333.4324466 2.5873333.6790346.7726667.2482563 1.43.5489001 1.972.9009303.542.3546996.9653333.802829 1.2686667 1.3443883.3033333.5398908.456 1.2035761.456 1.9887202 0 .9403044-.2646667 1.7855105-.79 2.5359521m7.1333333-5.8296866c0-7.3933012-5.9876667-13.3868237-13.3736667-13.3868237-.6906666 0-1.3633333.0667356-2.026.1685074-1.333-1.1391764-3.0596666-1.8328927-4.9506666-1.8328927-4.211 0-7.6263334 3.417529-7.6263334 7.6352177 0 1.7201095.5763334 3.3027438 1.5366667 4.5793955-.1963333.9156121-.3066667 1.8622563-.3066667 2.8365958 0 7.3949696 5.9863334 13.3888257 13.373 13.3888257.9493334 0 1.8746667-.1037738 2.7676667-.2923018 1.3393333 1.1712094 3.0873333 1.883278 5.003 1.883278 4.212 0 7.6263333-3.417529 7.6263333-7.6332156 0-2.0851532-.8353333-3.9721017-2.1896666-5.3485231.0986666-.6553433.1663333-1.3180277.1663333-1.9980632" fill="#FFF"/></g></g><g id="stumbleupon"><g fill="none" fill-rule="evenodd"><g fill-rule="nonzero"><circle fill="#FF8226" cx="30" cy="30" r="30"/><g transform="translate(16.000000, 16.000000)" fill="#FFFFFF"><path d="M0,15.2225809 L0,25.1910701 C0,26.7287731 1.26040471,27.9752991 2.81528027,27.9752991 C4.37015582,27.9752991 5.63056053,26.7287731 5.63056053,25.1910701 L5.63056053,9.9538317 C5.46855813,12.8905403 3.00985687,15.2225809 0,15.2225809" opacity="0.299999982"/><path d="M27.7743298,0 C21.648207,0 16.6819432,4.91150508 16.6819432,10.9702166 L16.6819432,14.3849279 C16.6819432,12.8472249 17.942565,11.6006989 19.4974406,11.6006989 C21.052099,11.6006989 22.3125037,12.8472249 22.3125037,14.3849279 L22.3125037,15.8020911 C22.3125037,17.339794 23.5731256,18.5863201 25.1280011,18.5863201 C26.6828767,18.5863201 27.9432814,17.339794 27.9432814,15.8020911 L27.9432814,0.00218765537 C27.8870366,0.00131259322 27.8307918,0 27.7743298,0" opacity="0.299999982"/><path d="M0,15.2860232 C3.00985687,15.2860232 5.46855813,12.9539825 5.63056053,10.017274 L5.63056053,7.4054322 C5.63056053,7.33367711 5.63425227,7.26279707 5.63968131,7.19257334 C5.74956497,5.75418993 6.96349714,4.62098444 8.4458408,4.62098444 C10.0007164,4.62098444 11.2611211,5.86751048 11.2611211,7.4054322 L11.2611211,18.2990809 C11.2615554,19.8363463 12.5217429,21.0826536 14.0764013,21.0826536 C15.6310597,21.0826536 16.8912473,19.8365651 16.8918988,18.2992997 L16.8918988,10.9702166 C16.8918988,4.91150508 21.8579454,0 27.9840683,0 L0,0 L0,15.2860232 Z" opacity="0.699999988"/><path d="M0,15.2225809 L0,25.1910701 C0,26.7287731 1.26040471,27.9752991 2.81528027,27.9752991 C4.37015582,27.9752991 5.63056053,26.7287731 5.63056053,25.1910701 L5.63056053,9.9538317 C5.46855813,12.8905403 3.00985687,15.2225809 0,15.2225809" opacity="0.5"/><path d="M27.7743298,0 C21.648207,0 16.6819432,4.91150508 16.6819432,10.9702166 L16.6819432,14.3849279 C16.6819432,12.8472249 17.942565,11.6006989 19.4974406,11.6006989 C21.052099,11.6006989 22.3125037,12.8472249 22.3125037,14.3849279 L22.3125037,15.8020911 C22.3125037,17.339794 23.5731256,18.5863201 25.1280011,18.5863201 C26.6828767,18.5863201 27.9432814,17.339794 27.9432814,15.8020911 L27.9432814,0.00218765537 C27.8870366,0.00131259322 27.8307918,0 27.7743298,0" opacity="0.5"/><path d="M0,15.2860232 C3.00985687,15.2860232 5.46855813,12.9539825 5.63056053,10.017274 L5.63056053,7.4054322 C5.63056053,7.33367711 5.63425227,7.26279707 5.63968131,7.19257334 C5.74956497,5.75418993 6.96349714,4.62098444 8.4458408,4.62098444 C10.0007164,4.62098444 11.2611211,5.86751048 11.2611211,7.4054322 L11.2611211,18.2990809 C11.2615554,19.8363463 12.5217429,21.0826536 14.0764013,21.0826536 C15.6310597,21.0826536 16.8912473,19.8365651 16.8918988,18.2992997 L16.8918988,10.9702166 C16.8918988,4.91150508 21.8579454,0 27.9840683,0 L0,0 L0,15.2860232 Z"/></g></g></g></g><g id="tuenti"><g fill="none" fill-rule="evenodd"><circle fill-opacity=".87" fill="#000" cx="30" cy="30" r="30"/><g fill="#FFF"><path d="M23.659429 32.884887c-1.728 3.054857-3.133715 6.281142-4.659429 9.456 0 1.299428.802286 2.372571 2.074286 2.773714 1.138285.36 2.52-.133715 3.161143-1.368 1.285714-2.489143 2.502857-5.022857 3.682285-7.580572.562286-1.230857.109715-2.622857-.884571-3.36-1.083429-.802285-2.784-.990857-3.373714.078857zM34.019023 15.445437c-1.446857.912-1.676571 2.598857-.562285 4.354285 1.885714 3.013715 2.811428 6.294858 2.811428 9.857143-.096 1.004572-.133714 2.022857-.281143 3.024-.377143 2.653715-1.515428 4.998857-2.866285 7.275429-.805715 1.364571-.36343 2.945143.88457 3.774857 1.244572.805714 2.797715.497143 3.802287-.802286.202285-.253714.373714-.524571.534857-.805714 4.848-8.461714 4.834286-16.913143-.133714-25.309714-1.056-1.782857-2.746286-2.276572-4.189715-1.368zM22.655552 18.428658c-1.968-.013714-3.603429 1.604571-3.654857 3.6-.041143 1.875429 1.752 3.672 3.627428 3.644571 1.930286-.027428 3.644572-1.728 3.658286-3.617142 0-1.926858-1.686857-3.617143-3.630857-3.627429z"/></g></g></g><g id="tumblr"><g fill="none" fill-rule="evenodd"><path d="M28.486325 59.969298c-6.636404-.569063-11.56302-2.326956-16.321973-5.823932C4.443764 48.472116 0 39.646792 0 29.986934 0 15.11156 10.506778 2.798388 25.274412.36718c6.028107-.992411 12.703853.049265 18.28794 2.85363 13.576275 6.818095 19.7813 22.541053 14.64267 37.103159-3.527955 9.997705-12.789708 17.617785-23.391072 19.244938-2.085625.320112-5.065149.508645-6.327625.400391z" fill="#35465C" fill-rule="nonzero"/><path d="M25.96539 14c0 6.948267-5.96539 8.206933-5.96539 8.206933v4.750934h4.023219v11.788089C24.023219 42.70791 27.676687 46 32.121159 46c4.444828 0 6.882486-1.768533 6.882486-1.768533v-5.240178s-1.341547 1.7664-4.08147 1.7664c-2.739568 0-3.924832-2.132622-3.924832-3.778133v-9.992178h7.00325v-5.025422h-7.00325V14H25.96539z" fill="#FFF"/></g></g><g id="twitter"><g fill="none" fill-rule="evenodd"><path d="M28.486325 59.969298c-6.636404-.569063-11.56302-2.326956-16.321973-5.823932C4.443764 48.472116 0 39.646792 0 29.986934 0 15.11156 10.506778 2.798388 25.274412.36718c6.028107-.992411 12.703853.049265 18.28794 2.85363 13.576275 6.818095 19.7813 22.541053 14.64267 37.103159-3.527955 9.997705-12.789708 17.617785-23.391072 19.244938-2.085625.320112-5.065149.508645-6.327625.400391z" fill="#1DA1F2" fill-rule="nonzero"/><path d="M45.089067 17.577067c-.929778.595555-3.064534 1.460977-4.117334 1.460977v.001778C39.7696 17.784 38.077156 17 36.200178 17c-3.645511 0-6.6016 2.956089-6.6016 6.600178 0 .50631.058666 1.000178.16711 1.473778h-.001066c-4.945066-.129778-10.353422-2.608356-13.609244-6.85049-2.001778 3.46489-.269511 7.3184 2.002133 8.72249-.7776.058666-2.209067-.0896-2.882844-.747023-.045156 2.299734 1.060622 5.346845 5.092622 6.452267-.776533.417778-2.151111.297956-2.7488.209067.209778 1.941333 2.928355 4.479289 5.901155 4.479289C22.46009 38.565156 18.4736 40.788089 14 40.080889 17.038222 41.929422 20.5792 43 24.327111 43c10.650667 0 18.921956-8.631822 18.4768-19.280356-.001778-.011733-.001778-.023466-.002844-.036266.001066-.027378.002844-.054756.002844-.0832 0-.033067-.002844-.064356-.003911-.096356.9696-.66311 2.270578-1.836089 3.2-3.37991-.539022.296888-2.156089.891377-3.6608 1.038932.965689-.521244 2.396444-2.228266 2.749867-3.585777" fill="#FFF"/></g></g><g id="vkontakte"><g fill="none" fill-rule="evenodd"><circle fill="#4680C2" fill-rule="nonzero" cx="30" cy="30" r="30"/><path d="M49.06121 21.60996c.28897-.90818 0-1.56868-1.27972-1.56868h-4.25195c-1.07331 0-1.56869.57794-1.85765 1.19715 0 0-2.1879 5.28399-5.2427 8.71032-.99076.99075-1.44485 1.321-1.9815 1.321-.28897 0-.6605-.33025-.6605-1.23843v-8.46264c0-1.0733-.33025-1.56868-1.23844-1.56868h-6.68754c-.6605 0-1.07331.49537-1.07331.99075 0 1.03203 1.5274 1.27971 1.69253 4.1694v6.27473c0 1.36227-.24769 1.60996-.78434 1.60996-1.44484 0-4.95374-5.32527-7.05908-11.3936C18.2242 20.4541 17.8114 20 16.73808 20h-4.29324C11.20641 20 11 20.57794 11 21.19715c0 1.1146 1.44484 6.72883 6.72883 14.15943 3.5089 5.07758 8.50391 7.80214 13.00355 7.80214 2.72456 0 3.0548-.61922 3.0548-1.65125v-3.83914c0-1.23844.2477-1.44484 1.1146-1.44484.61922 0 1.7338.33025 4.25196 2.76583C42.04342 41.879 42.53879 43.2 44.14875 43.2h4.25196c1.23844 0 1.81637-.61922 1.48612-1.81637-.37153-1.19715-1.77509-2.93096-3.59146-4.99502-.99074-1.15587-2.47686-2.43559-2.93096-3.0548-.61921-.82562-.45409-1.15587 0-1.89893-.04128 0 5.16015-7.34805 5.6968-9.82492" fill="#FFFFFF"/></g></g><g id="web_system_activity_dialog"><g fill="none" fill-rule="evenodd"><circle cx="30" cy="30" r="29.5" stroke="#E7E7E7" fill="#F4F4F4" stroke-width="1"/><path d="M 37.2 34.8 c -0.948 0.0 -1.8 0.372 -2.436 0.972 L 26.292 30.84 c 0.06 -0.276 0.108 -0.552 0.108 -0.84 s -0.048 -0.564 -0.108 -0.84 l 8.46 -4.932 c 0.636 0.6 1.5 0.972 2.448 0.972 c 1.992 0.0 3.6 -1.608 3.6 -3.6 s -1.608 -3.6 -3.6 -3.6 s -3.6 1.608 -3.6 3.6 c 0.0 0.288 0.048 0.576 0.108 0.84 L 25.248 27.372 C 24.6 26.772 26.748 26.4 22.8 26.4 c -1.992 0.0 -3.6 1.608 -3.6 3.6 s 1.608 3.6 3.6 3.6 c 0.948 0.0 1.8 -0.372 2.448 -0.972 l 8.46 4.944 c -0.06 0.264 -0.108 0.54 -0.108 0.828 c 0.0 1.992 1.608 3.6 3.6 3.6 s 3.6 -1.608 3.6 -3.6 s -1.608 -3.6 -3.6 -3.6 Z m 0.0 -14.4 c 0.66 0.0 1.2 0.54 1.2 1.2 s -0.54 1.2 -1.2 1.2 s -1.2 -0.54 -1.2 -1.2 s 0.54 -1.2 1.2 -1.2 Z M 22.8 31.2 c -0.66 0.0 -1.2 -0.54 -1.2 -1.2 s 0.54 -1.2 1.2 -1.2 s 1.2 0.54 1.2 1.2 s -0.54 1.2 -1.2 1.2 Z m 14.4 8.4 c -0.66 0.0 -1.2 -0.54 -1.2 -1.2 s 0.54 -1.2 1.2 -1.2 s 1.2 0.54 1.2 1.2 s -0.54 1.2 -1.2 1.2 Z" fill="#6F6F6F" fill-rule="nonzero"/></g></g><g id="weibo"><g fill="none" fill-rule="evenodd"><circle fill="#FFF" cx="30" cy="30" r="30"/><circle stroke="#EAEAEA" cx="30" cy="30" r="29.5"/><g fill-rule="nonzero"><path d="M14 35.5c0 4.6950262 6.04584352 8.5 13.5 8.5 7.4541565 0 13.5-3.8049738 13.5-8.5S34.9541565 27 27.5 27C20.04584352 27 14 30.8049738 14 35.5" fill="#FFF"/><path d="M27.3761426 43.6124005c-6.45365226.6607543-12.02530537-2.3542842-12.44479277-6.7241466-.41948739-4.375415 4.47453223-8.4509919 10.92280647-9.1117462 6.4536522-.6607543 12.0253053 2.3542842 12.4394147 6.7241466.4248654 4.375415-4.4691542 8.4565444-10.9174284 9.1117462m12.9019265-14.5199368c-.5485605-.1721292-.9250235-.2831804-.6399872-1.027223.623853-1.6157941.6883896-3.0094859.0107561-4.0089462-1.2638403-1.86565918-4.7273003-1.76571316-8.6962964-.049973 0 0-1.2477061.5608082-.9250235-.4553097.6077189-2.02668333.5162921-3.72021324-.4302435-4.70301584-2.1512174-2.22657538-7.8788338.08328836-12.78898757 5.15277294C13.13508329 27.7931654 11 31.8187693 11 35.3002225 11 41.9521859 19.26605293 46 27.3492524 46c10.6001238 0 17.6507389-6.3576778 17.6507389-11.4049522.005378-3.0539064-2.4846561-4.7863042-4.7219222-5.5025841" fill="#E6162D"/><path d="M47.4694908 17.28258474c-2.4366706-2.73706627-6.0302479-3.77901763-9.3473961-3.06364804-.7678584.1658828-1.2541687.93309077-1.090359 1.70548258.1638098.77757564.9163111 1.27004022 1.6841695 1.10415741 2.3598847-.50801608 4.9142937.2332727 6.6445346 2.17721181s2.201194 4.59288014 1.4589309 6.9152394c-.2405956.7568403.1689289 1.565519.916311 1.8091593.7473822.2436404 1.5459549-.1710666 1.7865505-.9227231v-.0051838c1.0442875-3.26063388.3839292-6.98781313-2.0527414-9.71969556" fill="#F93"/><path d="M43.7237466 20.7757037c-1.2316662-1.48190528-3.0473119-2.04698978-4.7196173-1.65489033-.6848488.15568655-1.1201791.8937561-.9768386 1.63759183.1486493.74383572.8228804 1.21666153 1.5024203 1.05520881.8175715-.19028355 1.7094677.08649253 2.309374.80726358.5999064.72653722.7644825 1.71255201.5043461 2.57747731-.2123563.720771.1486493 1.4992037.8175715 1.7356167.6689221.2306467 1.3803155-.1614528 1.5979806-.88799.5255817-1.7702137.1964295-3.78837262-1.0352366-5.2702779" fill="#F93"/><path d="M27.8864165 36.7119245c-.2193097.3947001-.704924.5810863-1.0808835.4166279-.3759594-.1589764-.4908359-.603014-.2767479-.9867503.2193097-.3837362.6840374-.5701223 1.0547752-.4166278.3759594.1425305.5117226.5865682.3028562.9867502M25.886521 39.398078c-.6057125 1.01416-1.9059056 1.4581976-2.8823559.9922322-.9607853-.4604834-1.2479765-1.6391018-.6422641-2.631334.6004908-.9867503 1.8536891-1.4253059 2.8249177-.9977142.9816719.4440377 1.2949715 1.6116921.6997023 2.636816m2.2766434-7.1813491c-2.9815674-.81681-6.3495376.7455446-7.64450909 3.5029634-1.32107978 2.8122383-.04177327 5.9369475 2.96590249 6.9565894 3.1225522 1.0580156 6.7986003-.5646404 8.0779068-3.5961565 1.2636415-2.9712147-.3132996-6.0246586-3.3993002-6.8633963" fill="#000"/></g></g></g><g id="whatsapp"><g fill="none" fill-rule="evenodd"><circle cx="30" cy="30" r="30" fill="#25D366"/><path d="M39.7746 19.3513C37.0512 16.5467 33.42 15 29.5578 15C21.6022 15 15.1155 21.6629 15.1155 29.8725C15.1155 32.4901 15.7758 35.0567 17.0467 37.3003L15 45L22.6585 42.9263C24.7712 44.1161 27.148 44.728 29.5578 44.728C37.5134 44.728 44 38.0652 44 29.8555C44 25.8952 42.498 22.1558 39.7746 19.3513ZM29.5578 42.2295C27.3956 42.2295 25.2829 41.6346 23.4508 40.5127L23.0051 40.2408L18.4661 41.4646L19.671 36.9093L19.3904 36.4334C18.1855 34.4618 17.5583 32.1841 17.5583 29.8555C17.5583 23.0397 22.9556 17.4986 29.5743 17.4986C32.7763 17.4986 35.7968 18.7904 38.0581 21.119C40.3193 23.4476 41.5737 26.5581 41.5737 29.8555C41.5572 36.6884 36.1764 42.2295 29.5578 42.2295ZM36.1434 32.966C35.7803 32.779 34.0142 31.8782 33.6841 31.7592C33.354 31.6402 33.1064 31.5722 32.8754 31.9462C32.6278 32.3201 31.9511 33.153 31.7365 33.4079C31.5219 33.6629 31.3238 33.6799 30.9607 33.4929C30.5976 33.306 29.4422 32.915 28.0558 31.6572C26.9829 30.6714 26.2567 29.4476 26.0421 29.0907C25.8275 28.7167 26.0256 28.5127 26.2072 28.3258C26.3722 28.1558 26.5703 27.8839 26.7518 27.6799C26.9334 27.4589 26.9994 27.3059 27.115 27.068C27.2305 26.813 27.181 26.6091 27.082 26.4221C26.9994 26.2351 26.2732 24.3994 25.9761 23.6686C25.679 22.9377 25.3819 23.0397 25.1673 23.0227C24.9528 23.0057 24.7217 23.0057 24.4741 23.0057C24.2265 23.0057 23.8469 23.0907 23.5168 23.4646C23.1867 23.8385 22.2459 24.7394 22.2459 26.5581C22.2459 28.3938 23.5333 30.1445 23.7149 30.3994C23.8964 30.6544 26.2567 34.3938 29.8714 36.0085C30.7297 36.3994 31.4064 36.6204 31.9345 36.7904C32.7928 37.0793 33.5851 37.0283 34.2123 36.9433C34.9055 36.8414 36.3415 36.0425 36.6551 35.1756C36.9522 34.3088 36.9522 33.5609 36.8697 33.4079C36.7541 33.255 36.5065 33.153 36.1434 32.966Z" fill="white"/></g></g><g id="wykop"><g fill="none" fill-rule="evenodd"><circle fill="#337EAD" cx="30" cy="30" r="30"/><g fill="#FFF" fill-rule="nonzero"><path d="M46.5 22.5c-.4-2.9-1.8-5.2-4.7-6.3-1.3-.5-2.7-.8-4.1-.9-2.6-.3-5.2-.3-7.6-.3-3.2 0-6.2 0-9.2.4-4.8.7-7.2 3.4-7.7 7.9-.2 2.6-.2 5.2-.2 7.8.1 2.3.1 4.5.6 6.8.6 3 2.3 5.1 5.3 6 1.5.5 3.1.7 4.7.8 3.1.3 6.3.1 9.4.1 2.3 0 4.6-.1 6.8-.6 3.4-.7 5.7-2.5 6.5-6 .4-1.6.6-3.2.6-4.8.1-3.5.2-7.2-.4-10.9zm-3.4 12.3c-.1 1.2-.3 2.4-.9 3.5-.7 1.4-1.9 2-3.4 2.2-2.8.5-5.8.4-8.8.5-2.7 0-5.3-.1-8-.3-3.1-.2-4.7-1.9-5.1-5.1-.4-3.5-.4-7-.1-10.5.1-.9.2-1.8.5-2.7.6-1.9 1.9-2.9 3.7-3.2 2.1-.3 4-.3 6-.3 3.3-.1 6.5 0 9.8.1.8 0 1.6.2 2.4.3 2.2.4 3.2 1.9 3.7 3.9.3 1.3.4 2.7.4 4 0 2.5 0 5.1-.2 7.6z"/><path d="M41 31.7c0 .2-.2.2-.4.3-2.5 1.2-5 2.5-7.5 3.7-2.5 1.2-5 2.4-7.4 3.7-.4.2-.6.2-.8-.2-1.8-3.7-3.6-7.4-5.4-11-.2-.3-.1-.5.2-.6 1-.5 2.1-1 3.1-1.5.4-.2.5-.1.7.3 1.4 3 2.9 5.9 4.3 8.9.3.5.5.5.9.3 1.4-.7 1.4-.7.7-2.1-1.3-2.7-2.6-5.4-4-8.1-.2-.4-.2-.5.2-.7 1-.5 2-.9 3-1.5.4-.2.6-.2.8.3 1.4 2.9 2.9 5.9 4.3 8.8.2.5.4.6.9.3 1.4-.7 1.4-.7.7-2.1-1.3-2.7-2.6-5.4-4-8.1-.2-.4-.2-.5.2-.7 1.1-.5 2.1-1 3.1-1.5.3-.1.4-.2.6.2 1.8 3.7 3.7 7.5 5.5 11.2.2 0 .2 0 .3.1z"/></g></g></g><g id="yahoo"><g fill="none" fill-rule="evenodd"><circle fill="#400191" cx="30" cy="30" r="30"/><path d="M37.513 14.571429c-1.109333 2.097833-5.201 8.885842-7.805 13.232664-2.641333-4.44092-5.768333-9.56788-7.805333-13.232664-1.615334.349694-2.291.37205-3.902667 0 3.199 4.893386 8.325 14.21401 10.068667 17.273837l-.234334 12.757174s1.125-.191198 1.877-.191198c.833 0 1.869667.191198 1.869667.191198l-.234-12.757174c3.253667-5.795651 8.625-15.251082 10.1-17.273837-.647333.44012-1.639.665353-2.551333.87457l-1.382667-.87457z" fill="#FFF"/></g></g><g id="youtube_community_post"><g stroke="none" stroke-width="1" fill="none" fill-rule="evenodd"><g fill-rule="nonzero"><path d="M30,0 L30,0 C46.625,0 60,13.375 60,30 L60,30 C60,46.625 46.625,60 30,60 L30,60 C13.375,60 0,46.625 0,30 L0,30 C0,13.375 13.375,0 30,0 Z" fill="#ff0000"/><path d="M40,27.125 L42.5,24.625 L42.5,40 C42.5,41.375 41.375,42.5 40,42.5 L20,42.5 C18.625,42.5 17.5,41.375 17.5,40 L17.5,20 C17.5,18.625 18.625,17.5 20,17.5 L35.375,17.5 L32.875,20 L20,20 L20,40 L40,40 L40,27.125 Z M23.75,32.625 L34.5,21.875 L38.125,25.5 L27.375,36.25 L23.75,36.25 L23.75,32.625 Z M41,22.75 L39.25,24.5 L35.625,20.875 L37.375,19.125 C37.75,18.75 38.375,18.75 38.75,19.125 L41,21.375 C41.375,21.75 41.375,22.375 41,22.75 Z" fill="#FFFFFF"/></g></g></g><g id="youtube_community_repost"><g stroke="none" stroke-width="1" fill="none" fill-rule="evenodd"><g fill-rule="nonzero"><circle fill="#ff0000" cx="30" cy="30" r="30"/><path d="M22.7083333,23.28125 L37.2916667,23.28125 L37.2916667,27.5 L43.125,21.875 L37.2916667,16.25 L37.2916667,20.46875 L19.7916667,20.46875 L19.7916667,28.90625 L22.7083333,28.90625 L22.7083333,23.28125 Z M37.2916667,37.34375 L22.7083333,37.34375 L22.7083333,33.125 L16.875,38.75 L22.7083333,44.375 L22.7083333,40.15625 L40.2083333,40.15625 L40.2083333,31.71875 L37.2916667,31.71875 L37.2916667,37.34375 Z" fill="#FFFFFF"/></g></g></g></defs></svg>