<svg xmlns="http://www.w3.org/2000/svg"><defs><g viewBox="0 0 376 376" id="lozenge"><path d="M375.47 116.9v28.4c-.24 30.27-4 60.58-4 60.58s-3.67 25.8-14.9 37.15c-14.23 14.9-30.18 14.98-37.5 15.84-52.4 3.8-131.12 3.67-131.16 3.67-3.27-.04-97.8-.7-127.24-3.52-8.32-1.56-27.06-1.1-41.3-16C8.1 231.7 4.46 205.9 4.46 205.9S.7 175.6 0 145.3v-28.4c.7-30.3 4.46-60.57 4.46-60.57s3.67-25.8 14.9-37.15C33.6 4.28 49.56 4.2 56.86 3.34c52.4-3.8 131.1-3.32 131.1-3.32s78.67-.47 131.08 3.32c7.3.86 23.26.94 37.5 15.84 11.22 11.34 14.9 37.15 14.9 37.15s3.75 30.27 4.03 60.58zM149.7 78.13V183.7l100.66-52.8L149.7 78.13z"/></g><g viewBox="0 0 14 14" id="premium"><path d="M0 1.007C0 .45.45 0 1.007 0H14v14H1.007C.45 14 0 13.55 0 12.993V1.007z" fill="#CC0000"/><path d="M5.52 7.994V11H3.762V2.469H7.09c.64 0 1.204.117 1.69.351.487.235.86.568 1.122 1 .262.431.393.922.393 1.473 0 .836-.286 1.495-.858 1.978-.573.482-1.365.723-2.376.723H5.52zm0-1.424h1.57c.465 0 .82-.11 1.063-.328.244-.219.367-.531.367-.937 0-.418-.124-.756-.37-1.014s-.586-.39-1.02-.398H5.52V6.57z" fill="#FFF" fill-rule="nonzero"/></g><g xmlns:xlink="http://www.w3.org/1999/xlink" width="24px" height="24px" viewBox="-2 -2 24 24" version="1.1" id="premium_standalone"><path d="M 0 1.4375 C 0 0.644531 0.644531 0 1.4375 0 L 18.5625 0 C 19.355469 0 20 0.644531 20 1.4375 L 20 18.5625 C 20 19.355469 19.355469 20 18.5625 20 L 1.4375 20 C 0.644531 20 0 19.355469 0 18.5625 Z M 0 1.4375 " fill="#CC0000"/><path d="M 7.886719 11.421875 L 7.886719 15.714844 L 5.375 15.714844 L 5.375 3.527344 L 10.128906 3.527344 C 11.042969 3.527344 11.847656 3.695312 12.542969 4.027344 C 13.238281 4.363281 13.769531 4.839844 14.144531 5.457031 C 14.519531 6.074219 14.707031 6.773438 14.707031 7.5625 C 14.707031 8.753906 14.296875 9.695312 13.480469 10.386719 C 12.664062 11.074219 11.53125 11.421875 10.085938 11.421875 Z M 7.886719 9.386719 L 10.128906 9.386719 C 10.792969 9.386719 11.300781 9.230469 11.648438 8.917969 C 11.996094 8.605469 12.171875 8.160156 12.171875 7.578125 C 12.171875 6.980469 11.996094 6.5 11.644531 6.128906 C 11.292969 5.761719 10.804688 5.574219 10.1875 5.5625 L 7.886719 5.5625 Z M 7.886719 9.386719 " fill="#FFF" fill-rule="nonzero"/></g><g viewBox="0 0 22 16" id="red"><path d="M2.6 7.03h.77C4.55 7.03 5 6.5 5 4.73c0-1.78-.45-2.3-1.63-2.3H2.6v4.6zM.43 15.26V.33h3.05c2.44 0 3.68 1.22 3.68 4.4 0 2.4-.8 3.37-1.52 3.77l1.84 6.76h-2.2L3.7 9.06c-.28.05-.73.08-1.12.08v6.12H.43zm17.34-7.9c0-1 .3-1.5.88-1.5.32 0 .66.16 1 .5v6.73c-.34.3-.68.46-1 .46-.58 0-.88-.5-.88-1.5V7.4zm-2 .17v4.4c0 1.02.07 1.76.2 2.23.27.82.8 1.24 1.6 1.24.72 0 1.4-.4 2.07-1.22v1.07h2V.4h-2v4.86c-.64-.8-1.33-1.2-2.06-1.2-.8 0-1.34.42-1.6 1.25-.14.47-.2 1.2-.2 2.25zM10.3 7.4c0-1.02.34-1.54 1-1.54.67 0 1 .52 1 1.54v1.02h-2V7.4zm4 2.7V7.8c0-1.18-.2-2.05-.6-2.6-.57-.76-1.37-1.14-2.37-1.14-1.02 0-1.82.38-2.4 1.13-.42.53-.62 1.4-.62 2.6v3.85c0 1.18.25 2.05.68 2.6.58.75 1.37 1.13 2.42 1.13 1.03 0 1.85-.4 2.4-1.2.25-.36.4-.76.48-1.2 0-.2.04-.65.04-1.3v-.3H12.3c0 .8-.04 1.26-.06 1.37-.1.53-.4.8-.9.8-.68 0-1-.5-1-1.53V10.1h4z"/></g></defs></svg>